<svg width="746" height="746" viewBox="0 0 746 746" fill="none" xmlns="http://www.w3.org/2000/svg">
<g clip-path="url(#clip0_689_387)">
<rect width="1254" height="1254" transform="translate(-254 -254)" fill="#F7F8FA"/>
<mask id="path-1-outside-1_689_387" maskUnits="userSpaceOnUse" x="247.807" y="491.083" width="217" height="118" fill="black">
<rect fill="white" x="247.807" y="491.083" width="217" height="118"/>
<path d="M260.438 493.104C268.455 492.651 285.695 499.998 295.842 502.202C310.527 505.246 325.446 507.021 340.434 507.505C369.449 508.656 400.737 506.874 428.665 498.559C440.904 494.916 461.699 485.309 461.993 507.946C462.287 530.429 448.044 557.034 433.293 573.376C403.964 603.851 364.875 614.143 323.951 601.793C297.09 593.692 273.79 571.362 261.651 546.429C255.753 534.311 247.892 515.569 251.902 501.645C253.501 496.759 256.081 495.143 260.438 493.104ZM447.401 508.221C438.908 511.209 429.203 514.65 420.325 516.542C379.986 525.127 333.652 525.47 293.238 517.216C284.279 515.385 273.867 511.723 265.395 508.766C269.277 534.519 282.294 558.669 303.473 574.222C323.044 588.525 347.553 594.348 371.469 590.362C394.7 586.626 411.238 575.703 426.27 558.142C438.792 541.867 444.431 528.323 447.401 508.221Z"/>
</mask>
<path d="M260.438 493.104C268.455 492.651 285.695 499.998 295.842 502.202C310.527 505.246 325.446 507.021 340.434 507.505C369.449 508.656 400.737 506.874 428.665 498.559C440.904 494.916 461.699 485.309 461.993 507.946C462.287 530.429 448.044 557.034 433.293 573.376C403.964 603.851 364.875 614.143 323.951 601.793C297.09 593.692 273.79 571.362 261.651 546.429C255.753 534.311 247.892 515.569 251.902 501.645C253.501 496.759 256.081 495.143 260.438 493.104ZM447.401 508.221C438.908 511.209 429.203 514.65 420.325 516.542C379.986 525.127 333.652 525.47 293.238 517.216C284.279 515.385 273.867 511.723 265.395 508.766C269.277 534.519 282.294 558.669 303.473 574.222C323.044 588.525 347.553 594.348 371.469 590.362C394.7 586.626 411.238 575.703 426.27 558.142C438.792 541.867 444.431 528.323 447.401 508.221Z" fill="#4E5968"/>
<path d="M260.438 493.104L260.325 491.107L259.94 491.129L259.59 491.292L260.438 493.104ZM295.842 502.202L295.418 504.157L295.427 504.159L295.436 504.161L295.842 502.202ZM340.434 507.505L340.513 505.507L340.506 505.506L340.499 505.506L340.434 507.505ZM428.665 498.559L428.094 496.642L428.094 496.642L428.665 498.559ZM461.993 507.946L459.993 507.972V507.972L461.993 507.946ZM433.293 573.376L434.734 574.763L434.757 574.74L434.778 574.716L433.293 573.376ZM323.951 601.793L324.529 599.879L324.528 599.878L323.951 601.793ZM261.651 546.429L259.853 547.304L259.853 547.304L261.651 546.429ZM251.902 501.645L250.001 501.023L249.99 501.057L249.98 501.091L251.902 501.645ZM447.401 508.221L449.379 508.513L449.864 505.234L446.737 506.334L447.401 508.221ZM420.325 516.542L420.741 518.498L420.742 518.498L420.325 516.542ZM293.238 517.216L292.837 519.176L292.838 519.176L293.238 517.216ZM265.395 508.766L266.054 506.878L262.923 505.785L263.417 509.064L265.395 508.766ZM303.473 574.222L302.289 575.834L302.293 575.837L303.473 574.222ZM371.469 590.362L371.152 588.387L371.14 588.389L371.469 590.362ZM426.27 558.142L427.789 559.442L427.823 559.403L427.855 559.361L426.27 558.142ZM260.438 493.104L260.551 495.101C262.268 495.004 264.627 495.326 267.482 495.975C270.305 496.616 273.468 497.542 276.745 498.566C283.21 500.585 290.228 503.03 295.418 504.157L295.842 502.202L296.267 500.248C291.309 499.171 284.634 496.84 277.938 494.748C274.634 493.716 271.35 492.752 268.368 492.074C265.419 491.404 262.617 490.978 260.325 491.107L260.438 493.104ZM295.842 502.202L295.436 504.161C310.233 507.227 325.266 509.017 340.37 509.504L340.434 507.505L340.499 505.506C325.625 505.026 310.82 503.264 296.248 500.244L295.842 502.202ZM340.434 507.505L340.355 509.504C369.484 510.659 401.016 508.878 429.235 500.476L428.665 498.559L428.094 496.642C400.459 504.87 369.414 506.653 340.513 505.507L340.434 507.505ZM428.665 498.559L429.235 500.476C430.796 500.011 432.491 499.452 434.218 498.889C435.958 498.322 437.747 497.746 439.548 497.227C443.177 496.181 446.718 495.41 449.816 495.397C452.9 495.385 455.291 496.121 456.954 497.817C458.635 499.531 459.923 502.581 459.993 507.972L461.993 507.946L463.993 507.92C463.916 501.991 462.494 497.754 459.811 495.017C457.109 492.261 453.482 491.382 449.8 491.397C446.134 491.412 442.162 492.311 438.441 493.383C436.567 493.924 434.721 494.519 432.979 495.086C431.225 495.658 429.593 496.196 428.094 496.642L428.665 498.559ZM461.993 507.946L459.993 507.972C460.135 518.811 456.764 530.777 451.472 542.118C446.188 553.444 439.05 564.014 431.809 572.036L433.293 573.376L434.778 574.716C442.288 566.396 449.646 555.493 455.097 543.81C460.541 532.142 464.145 519.564 463.993 507.919L461.993 507.946ZM433.293 573.376L431.852 571.989C403.045 601.921 364.736 612.012 324.529 599.879L323.951 601.793L323.373 603.708C365.014 616.274 404.883 605.78 434.734 574.763L433.293 573.376ZM323.951 601.793L324.528 599.878C298.287 591.964 275.386 570.071 263.449 545.553L261.651 546.429L259.853 547.304C272.195 572.653 295.893 595.42 323.373 603.708L323.951 601.793ZM261.651 546.429L263.449 545.554C260.518 539.532 257.141 531.945 254.988 524.18C252.825 516.376 251.97 508.636 253.824 502.198L251.902 501.645L249.98 501.091C247.824 508.577 248.894 517.171 251.134 525.248C253.384 533.365 256.886 541.209 259.853 547.304L261.651 546.429ZM251.902 501.645L253.803 502.267C254.515 500.09 255.393 498.78 256.485 497.783C257.629 496.737 259.116 495.931 261.286 494.915L260.438 493.104L259.59 491.292C257.403 492.316 255.421 493.337 253.786 494.83C252.099 496.372 250.888 498.313 250.001 501.023L251.902 501.645ZM447.401 508.221L446.737 506.334C438.211 509.334 428.636 512.726 419.908 514.586L420.325 516.542L420.742 518.498C429.771 516.574 439.605 513.084 448.065 510.108L447.401 508.221ZM420.325 516.542L419.908 514.586C379.834 523.114 333.778 523.454 293.638 515.257L293.238 517.216L292.838 519.176C333.526 527.485 380.138 527.139 420.741 518.498L420.325 516.542ZM293.238 517.216L293.638 515.257C284.839 513.458 274.565 509.848 266.054 506.878L265.395 508.766L264.736 510.654C273.17 513.598 283.72 517.312 292.837 519.176L293.238 517.216ZM265.395 508.766L263.417 509.064C267.367 535.269 280.624 559.925 302.289 575.834L303.473 574.222L304.657 572.61C283.963 557.414 271.187 533.77 267.373 508.468L265.395 508.766ZM303.473 574.222L302.293 575.837C322.298 590.457 347.351 596.409 371.798 592.334L371.469 590.362L371.14 588.389C347.756 592.286 323.79 586.593 304.653 572.607L303.473 574.222ZM371.469 590.362L371.787 592.336C395.573 588.512 412.512 577.289 427.789 559.442L426.27 558.142L424.751 556.841C409.963 574.116 393.827 584.741 371.152 588.387L371.469 590.362ZM426.27 558.142L427.855 559.361C440.588 542.811 446.361 528.947 449.379 508.513L447.401 508.221L445.422 507.929C442.502 527.699 436.995 540.922 424.685 556.922L426.27 558.142Z" fill="#4E5968" mask="url(#path-1-outside-1_689_387)"/>
<path d="M416.965 -46.5579C430.27 -46.8668 442.569 -45.8535 455.253 -41.1956C473.794 -34.3862 490.744 -23.6346 501.48 -9.2561C512.127 5.00389 516.623 22.7882 510.546 43.6462C527.4 55.6046 537.99 74.2964 539.36 92.8445C540.711 111.143 533.077 129.269 513.743 140.537C521.323 144.344 528.602 148.791 535.726 153.267C543.395 158.086 550.87 162.929 558.406 167.096C594.342 186.977 620.748 209.869 639.299 247.214C641.835 252.319 648.001 263.378 652.703 274.369C655.058 279.872 657.072 285.418 658.096 290.26C659.104 295.029 659.213 299.393 657.411 302.312L657.412 302.313C656.261 304.202 654.393 305.545 652.239 306.039L652.232 306.041C651.159 306.279 649.821 306.234 648.592 305.998C647.373 305.764 646.102 305.313 645.226 304.614C644.097 303.715 643.266 302.319 642.615 300.784C641.956 299.232 641.435 297.428 640.986 295.609C640.537 293.795 640.145 291.9 639.763 290.211C639.375 288.494 638.997 286.986 638.569 285.839C637.225 282.242 636.632 280.394 635.108 277.098L633.371 273.502C624.728 255.735 614.525 236.86 601.94 221.922L601.297 221.166C586.105 203.404 561.458 189.833 541.56 177.257C525.33 167 507.549 155.818 489.897 148.89V148.889C487.933 148.119 485.425 147.661 482.565 147.322C479.696 146.983 476.605 146.777 473.404 146.471C467.135 145.873 460.534 144.908 455.945 141.68C453.733 140.414 452.711 137.917 452.549 135.498C452.386 133.057 453.07 130.411 454.612 128.669C457.437 125.474 461.753 125.825 465.673 126.78C467.672 127.267 469.719 127.952 471.585 128.538C473.486 129.134 475.187 129.623 476.612 129.786C480.847 130.271 483.512 130.401 487.644 130.208C507.866 129.264 524.658 114.482 522.095 93.2791L522.094 93.2683C520.5 78.7209 513.906 68.9729 503.085 59.6501C494.922 72.2715 487.159 79.2864 472.292 87.7527C469.922 89.2266 465.51 91.0345 460.326 92.6062C455.122 94.1841 449.052 95.5516 443.33 96.1121C437.644 96.6691 432.152 96.445 428.201 94.7087C426.204 93.831 424.554 92.5463 423.505 90.74C422.454 88.9304 422.065 86.6989 422.407 84.0388V84.0378C422.538 83.0241 423.132 82.2281 423.903 81.6199C424.665 81.0182 425.662 80.5475 426.765 80.1687C428.974 79.4102 431.849 78.9374 434.777 78.615C437.717 78.2912 440.779 78.1129 443.382 77.9646C446.016 77.8146 448.106 77.697 449.221 77.5056C466.231 73.8478 478.006 65.208 488.129 51.4226C486.325 50.8282 484.512 50.2545 482.692 49.7019V49.7009C464.435 44.2663 439.918 45.6879 424.487 57.5779C423.402 58.4141 422.263 59.7213 420.994 61.2693C419.753 62.7839 418.399 64.5131 416.955 66.0417C414.102 69.0628 410.51 71.7186 406.027 70.3367L405.84 70.28L405.69 70.156C403.911 68.7041 402.744 67.0838 402.137 65.3328C401.53 63.5819 401.506 61.7671 401.907 59.9636C402.702 56.3941 405.173 52.8026 408.254 49.5496C414.234 43.2371 422.909 37.7921 427.888 35.7693L428.359 35.5837C450.49 27.1701 473.245 27.0608 495.121 35.5525C496.647 29.0822 496.6 22.3347 494.981 15.8757V15.8748C491.301 1.31353 479.652 -8.74302 466.997 -16.4124C445.624 -29.3633 421.733 -32.1914 397.605 -26.1936C384.512 -22.9388 374.379 -17.4727 366.388 -9.7522C358.391 -2.02584 352.485 8.0079 347.927 20.4744C346.624 24.0374 345.471 27.6673 344.265 31.3201C343.064 34.9564 341.812 38.6026 340.327 42.1521C338.784 46.0298 336.492 49.3878 334.135 52.5906C331.757 55.822 329.343 58.8634 327.404 62.2312C322.442 70.8481 322.113 81.4521 325.349 90.9187C328.585 100.386 335.349 108.604 344.417 112.488C346.248 113.272 348.142 113.777 350.142 114.379C352.113 114.971 354.152 115.65 356.1 116.771C359.664 118.824 361.102 122.592 360.543 125.939C359.979 129.322 357.372 132.268 353.023 132.595L352.998 132.597L352.974 132.598C342.635 132.872 332.48 126.595 324.833 120.498C317.978 120.445 313.396 119.86 306.715 117.376C290.277 111.338 276.924 98.9951 269.615 83.0808L269.614 83.0769C263.939 70.5776 263.382 55.5804 268.059 42.0671C269.467 37.9986 272.697 32.6395 276.674 29.9441C278.686 28.5804 281.001 27.8285 283.398 28.4353C285.634 29.0016 287.727 30.6967 289.607 33.6824L289.98 34.2976L290.011 34.3494L290.034 34.405C291.413 37.5854 289.724 40.5394 287.949 42.9001C287.073 44.0664 285.985 45.3213 285.191 46.3328C284.335 47.4226 283.716 48.3506 283.448 49.1628C279.482 61.2092 281.883 71.8992 287.749 80.7683C293.189 88.9924 301.62 95.6573 310.737 100.305C304.498 83.0811 304.113 62.8508 316.584 47.4421C321.119 41.8386 323.524 37.9011 325.332 33.7136C327.16 29.4814 328.381 24.9974 330.55 18.1785C337.309 -3.06933 348.031 -18.5388 362.549 -29.0579C377.058 -39.5702 395.274 -45.0771 416.92 -46.5559L416.965 -46.5579Z" fill="#4E5968" stroke="#4E5968" stroke-width="2"/>
<path d="M578.046 453.424C581.367 453.477 583.839 454.447 585.711 456.26C587.548 458.039 588.712 460.54 589.626 463.463C598.532 491.946 600.248 519.879 587.69 547.445C618.341 563.97 634.175 605.734 619.233 637.882C617.858 640.844 615.764 645.027 612.948 647.866C611.531 649.294 609.869 650.447 607.958 650.888C606.015 651.337 603.928 651.025 601.748 649.727V649.726C600.041 648.775 599.012 647.483 598.54 645.971C598.075 644.485 598.177 642.884 598.531 641.345C599.229 638.307 601.024 635.111 602.129 632.888L602.448 632.24C609.029 618.622 609.289 605.31 604.887 593.297C600.512 581.358 591.506 570.64 579.387 562.186C568.433 580.6 550.699 595.237 531.041 607.074C511.043 619.115 488.978 628.305 469.864 635.639C463.917 637.92 458.014 640.66 452.026 643.332C446.27 645.899 440.448 648.395 434.524 650.305C434.03 660.707 433.52 673.736 435.606 683.824C436.351 685.982 437.503 688.102 438.667 690.347C439.822 692.573 440.98 694.912 441.582 697.356L441.585 697.373L441.589 697.388C442.397 701.211 439.91 704.645 436.864 706.347C433.903 708.002 429.931 708.27 427.34 705.351L427.094 705.059C421.813 698.462 419.362 689.688 418.2 680.779C417.105 672.394 417.138 663.762 417.098 656.549C380.429 667.865 336.93 664.309 300.141 655.269C300.287 662.553 300.456 670.915 299.653 679.075C298.802 687.719 296.855 696.243 292.564 703.091C291.113 705.408 288.613 706.628 286.073 706.815C283.535 707.001 280.85 706.167 278.955 704.244C277.276 702.549 276.448 700.191 276.7 697.818C276.803 696.799 277.171 695.569 277.629 694.299C278.093 693.014 278.68 691.611 279.262 690.231C279.849 688.841 280.429 687.475 280.901 686.228C281.377 684.97 281.715 683.897 281.841 683.088C283.415 673.015 283.2 661.285 283.306 650.831C236.814 635.884 183.917 607.603 155.136 566.832C149.387 572.695 146.826 576.875 142.889 584.437C135.614 600.054 132.425 621.008 143.182 635.581H143.183C144.414 637.248 145.998 638.744 147.656 640.368C149.285 641.963 150.973 643.672 152.237 645.677L152.445 646.023C153.442 647.748 153.761 649.454 153.507 651.03C153.238 652.701 152.338 654.128 151.111 655.204C148.682 657.333 144.85 658.195 141.457 656.925L141.45 656.923L141.443 656.92C137.958 655.557 134.634 652.791 131.823 649.633C129.002 646.465 126.631 642.829 125.075 639.625C114.873 618.621 118.58 591.931 129.808 572.239L130.714 570.657C135.065 563.119 139.105 557.1 147.124 552.71C142.069 541.961 139.552 533.349 138.361 524.515C137.209 515.969 137.303 507.239 137.503 496.244C136.141 497.117 134.966 497.697 133.89 498.021C132.368 498.48 131.087 498.422 129.832 498.057C128.641 497.711 127.454 497.077 126.189 496.453C124.892 495.813 123.395 495.117 121.442 494.533V494.534C114.566 492.483 110.222 487.721 110 483.35C109.885 481.094 110.895 479.038 113.072 477.732C115.194 476.459 118.338 475.943 122.491 476.429H122.492C125.629 476.798 129.207 478.252 132.421 480.235C134.881 481.753 137.187 483.618 138.959 485.621C139.505 482.005 140.345 476.872 141.525 471.951C142.255 468.906 143.121 465.914 144.137 463.398C145.138 460.92 146.34 458.762 147.812 457.525L148.136 457.265C149.677 456.098 151.598 455.552 153.519 455.725L153.931 455.774L153.94 455.775C156.902 456.228 158.834 457.507 159.9 459.4C160.934 461.235 161.053 463.474 160.803 465.665C160.551 467.87 159.907 470.172 159.269 472.223C158.697 474.063 158.149 475.649 157.828 476.897L157.705 477.411C152.142 502.685 151.982 531.859 167.388 554.164L168.09 555.17C198.012 597.663 254.267 625.189 303.787 638.343C321.765 641.923 342.027 645.374 362.12 646.116C382.232 646.858 402.11 644.883 419.326 637.653C454.166 623.025 492.365 610.221 524.256 590.826L525.771 589.897C546.058 577.34 561.772 561.405 570.904 542.697C579.886 524.294 582.528 503.152 576.825 479.782L576.547 478.667C575.985 476.464 575.091 474.262 574.195 472.037C573.311 469.842 572.419 467.611 571.945 465.46C571.468 463.297 571.389 461.116 572.218 459.042C573.052 456.959 574.747 455.127 577.54 453.553L577.775 453.42L578.046 453.424Z" fill="#4E5968" stroke="#4E5968" stroke-width="2"/>
<path d="M189.315 267.939C190.844 267.911 192.107 267.909 193.321 268.208C194.569 268.516 195.697 269.122 197.042 270.184C198.705 271.496 199.532 273.138 199.76 274.937C199.983 276.695 199.628 278.557 199.037 280.364C198.443 282.178 197.585 284.016 196.731 285.741C195.864 287.493 195.018 289.097 194.384 290.547C189.565 301.577 184.012 312.642 178.375 323.346C175.646 328.529 172.416 333.971 169.115 339.565C165.809 345.169 162.427 350.932 159.371 356.793C153.248 368.532 148.49 380.553 148.238 392.284C148.12 397.761 149.206 403.102 150.39 408.761C151.568 414.39 152.839 420.317 152.997 426.81L153.002 427.075L152.876 427.309C151.676 429.535 150.05 430.8 148.163 431.374C146.321 431.934 144.324 431.806 142.404 431.448C140.49 431.092 138.512 430.477 136.748 429.988C134.931 429.486 133.35 429.119 132.045 429.144L131.449 429.16C106.261 429.992 89.0887 451.205 84.3247 474.867C79.5626 498.52 87.3054 524.056 111.363 533.505L111.934 533.726L111.966 533.737L111.998 533.752C112.915 534.173 114.474 534.541 116.455 534.944C118.382 535.336 120.652 535.751 122.821 536.27C124.988 536.788 127.144 537.43 128.87 538.309C130.463 539.12 131.869 540.227 132.433 541.797L132.535 542.117L132.543 542.15L132.55 542.185C133.029 544.567 132.953 546.537 132.369 548.135C131.777 549.753 130.694 550.903 129.333 551.679C126.688 553.186 122.985 553.281 119.583 552.96C96.3962 550.77 80.348 536.664 71.1392 516.131L71.1216 516.091L71.1069 516.05C61.269 487.682 66.2883 456.801 85.9419 433.906C73.4429 412.536 77.2287 387.001 88.1802 365.787C89.5955 363.045 92.8685 356.581 96.9907 352.491C99.0457 350.452 101.468 348.844 104.115 348.766C106.842 348.685 109.459 350.229 111.855 353.704C113.952 356.745 112.752 359.882 111.071 362.464C110.219 363.772 109.182 365.039 108.237 366.193C107.271 367.373 106.42 368.418 105.847 369.356C96.4663 384.741 90.7901 405.8 99.4351 422.417C109.97 414.744 120.602 412.819 133.213 411.978C127.491 389.915 133.745 369.687 143.333 350.425C148.211 340.626 153.977 331.028 159.493 321.559C165.018 312.072 170.297 302.707 174.258 293.302C177.32 286.032 180.941 278.574 184.335 271.504H184.336C184.453 271.262 184.641 271.063 184.765 270.941C184.912 270.797 185.088 270.646 185.272 270.499C185.641 270.203 186.1 269.873 186.556 269.56C187.471 268.93 188.439 268.322 188.798 268.095L189.035 267.944L189.315 267.939Z" fill="#4E5968" stroke="#4E5968" stroke-width="2"/>
<path d="M657.109 324.868C661.162 325.192 663.63 326.675 665.345 329.038C666.57 330.724 667.393 332.85 668.201 335.142L669.018 337.48C674.753 353.655 678.416 372.828 677.499 391.365C676.594 409.634 671.233 427.355 658.938 440.94C664.893 449.536 669.105 459.213 671.336 469.434L671.515 470.256C678.948 505.101 663.057 543.717 625.677 552.088L625.678 552.089C623.298 552.623 618.302 553.281 613.833 552.868C611.605 552.663 609.405 552.182 607.719 551.208C605.985 550.207 604.752 548.648 604.682 546.399L604.681 546.364L604.682 546.328C604.839 542.374 606.185 539.898 608.519 538.373C610.741 536.922 613.732 536.433 616.892 536.038L617.999 535.892C623.454 535.131 627.761 533.884 631.664 531.891C635.822 529.767 639.575 526.767 643.791 522.506C658.914 504.783 659.158 478.234 649.138 457.912C639.135 437.623 619.066 423.831 593.729 431.247C588.657 432.731 584.48 428.877 583.971 424.436C583.712 422.17 584.383 419.729 586.288 417.675C588.183 415.632 591.237 414.034 595.656 413.283H595.657C606.377 411.466 615.653 411.572 624.254 414.052C632.543 416.443 640.133 421.019 647.75 428.079C663.267 404.318 663.191 381.021 656.463 353.599C655.866 351.17 654.79 348.647 653.66 346.062C652.545 343.511 651.371 340.888 650.675 338.38C649.978 335.869 649.717 333.334 650.555 330.98C651.405 328.594 653.317 326.574 656.59 324.968L656.836 324.847L657.109 324.868Z" fill="#4E5968" stroke="#4E5968" stroke-width="2"/>
<path d="M294.538 120.326C296.768 120.228 298.935 121.087 300.492 122.688L300.493 122.688C303.084 125.36 303.572 128.599 302.441 131.377C301.326 134.114 298.694 136.283 295.278 137.048C256.499 145.732 218.475 163.272 189.245 190.445C176.718 202.09 166.443 216.602 155.472 229.933C151.182 235.422 146.441 240.821 141.929 246.263C137.394 251.733 133.058 257.287 129.495 263.177L129.493 263.181C119.892 278.9 112.561 295.36 111.821 313.819C111.727 316.17 111.977 318.231 112.283 320.121C112.582 321.972 112.958 323.777 113.057 325.427C113.159 327.123 112.982 328.782 112.129 330.43C111.284 332.064 109.823 333.592 107.533 335.132L107.318 335.276L107.061 335.299C103.807 335.583 101.072 335.223 99.0229 333.758C96.9483 332.274 95.7891 329.814 95.3296 326.399C89.4927 283.001 117.82 247.617 143.574 216.964C154.193 204.325 163.459 191.492 175.649 179.686C207.015 149.307 250.062 128.469 292.76 120.543L292.779 120.539L292.799 120.536C293.39 120.451 293.865 120.361 294.53 120.326H294.538Z" fill="#4E5968" stroke="#4E5968" stroke-width="2"/>
<path d="M262.066 712.234C262.702 712.223 263.361 712.235 263.925 712.3C264.206 712.332 264.489 712.38 264.747 712.455C264.984 712.524 265.297 712.643 265.554 712.874C303.896 747.173 361.753 762.114 411.928 750.705L412.734 750.51C421.033 748.376 428.702 742.637 435.733 736.104C439.353 732.741 442.773 729.198 446.009 725.867C449.233 722.547 452.286 719.426 455.135 716.954C455.663 716.495 456.412 716.334 457.085 716.296C457.799 716.255 458.617 716.343 459.453 716.543C461.119 716.941 463.002 717.823 464.419 719.268C465.861 720.738 466.808 722.786 466.525 725.389C466.247 727.947 464.795 730.919 461.732 734.334L461.729 734.338C448.068 749.394 436.07 759.332 422.216 765.24C408.358 771.149 392.744 772.984 371.925 772.016C330.543 770.091 288.778 756.531 257.657 728.222C254.99 725.795 253.786 723.046 254.018 720.246C254.247 717.482 255.858 714.881 258.375 712.672L258.62 712.457L258.944 712.428C259.477 712.379 260.788 712.257 262.066 712.234Z" fill="#4E5968" stroke="#4E5968" stroke-width="2"/>
<path d="M310.86 223.234C315.112 223.777 317.834 224.918 319.211 226.69C320.658 228.551 320.397 230.779 319.534 232.828C318.672 234.878 317.114 237.003 315.528 238.946C314.728 239.925 313.904 240.879 313.139 241.767C312.369 242.661 311.662 243.484 311.074 244.224C300.518 257.53 293.826 273.845 287.297 290.47C280.789 307.044 274.438 323.938 264.555 338.13L264.55 338.138C246.312 363.836 218.73 381.365 187.719 386.965L187.596 386.988L187.471 386.979C184.763 386.788 181.98 386.044 180.115 384.346C179.165 383.482 178.463 382.377 178.148 381.014C177.834 379.659 177.917 378.111 178.432 376.366C179.381 373.153 181.939 371.465 184.674 370.415C186.044 369.889 187.505 369.505 188.9 369.167C190.318 368.824 191.639 368.535 192.833 368.188L192.838 368.187C197.128 366.964 201.336 365.48 205.436 363.73L206.254 363.376C228.694 353.543 242.16 341.109 252.072 325.88C262.02 310.594 268.398 292.489 276.638 271.179C279.626 263.45 283.984 253.277 289.596 244.159C295.188 235.074 302.123 226.876 310.334 223.309L310.587 223.199L310.86 223.234Z" fill="#4E5968" stroke="#4E5968" stroke-width="2"/>
<path d="M426.174 231.731C429.663 231.587 432.171 232.211 433.93 233.541C435.7 234.88 436.544 236.809 436.976 238.896C437.403 240.961 437.452 243.322 437.527 245.621C437.603 247.963 437.705 250.28 438.194 252.429C447.643 293.993 480.069 328.243 511.21 356.071C515.985 359.792 521.091 363.786 526.226 366.917L527.255 367.532C530.886 369.661 534.365 372.346 535.681 375.543C536.361 377.195 536.461 378.977 535.731 380.818C535.013 382.627 533.526 384.41 531.193 386.178L530.966 386.349L530.684 386.376C527.44 386.687 524.232 385.822 521.264 384.444C518.295 383.064 515.507 381.144 513.083 379.265L511.195 377.794C471.511 346.716 429.6 303.242 421.236 251.58C420.614 247.742 419.849 244.126 420.161 240.888C420.484 237.522 421.956 234.555 425.632 231.917L425.875 231.742L426.174 231.731Z" fill="#4E5968" stroke="#4E5968" stroke-width="2"/>
<path d="M347.889 221.46C353.892 220.592 358.298 222.921 359.735 226.746C361.168 230.563 359.417 235.264 354.387 238.664C353.448 239.299 352.225 240.784 351 242.536C350.104 243.819 349.261 245.166 348.594 246.261L347.992 247.26C334.13 270.389 325.19 296.684 319.391 322.991L319.39 322.99C318.265 328.15 317.305 335.248 317.329 342.238C317.353 349.262 318.372 356.02 321.078 360.62C321.958 362.117 323.083 363.483 324.201 364.874C325.291 366.231 326.397 367.638 327.078 369.113C327.778 370.629 328.057 372.278 327.435 374.077C326.829 375.831 325.413 377.592 323.029 379.473L322.833 379.627L322.588 379.672C319.254 380.279 316.749 380.034 314.562 378.859C312.426 377.711 310.723 375.738 308.85 373.217C304.19 366.942 301.848 358.438 300.945 349.786C300.04 341.119 300.57 332.199 301.74 324.996C303.953 311.376 309.914 289.684 318.019 269.365C322.073 259.201 326.672 249.357 331.621 241.025C336.559 232.709 341.89 225.823 347.431 221.652L347.635 221.497L347.889 221.46Z" fill="#4E5968" stroke="#4E5968" stroke-width="2"/>
<path d="M484.439 694.66C488.798 694.575 493.975 695.565 499.018 696.869C504.071 698.176 509.077 699.825 513.083 701.087C547.207 711.827 572.26 737.088 594.138 763.931V763.932C596.493 766.821 598.597 769.753 599.045 772.736C599.276 774.273 599.068 775.812 598.275 777.334C597.49 778.838 596.161 780.272 594.231 781.672L593.993 781.845L593.7 781.861C590.862 782.02 588.544 781.595 586.563 780.71C584.586 779.827 583.005 778.512 581.601 776.976C580.207 775.451 578.958 773.671 577.68 771.86C576.39 770.033 575.055 768.149 573.447 766.319C556.709 747.275 538.744 729.416 514.787 720.371L513.642 719.947C506.727 717.435 499.808 715.277 492.687 713.424L492.68 713.422C491.234 713.035 489.024 712.522 486.918 711.903C484.817 711.286 482.631 710.514 481.16 709.534L481.06 709.468L480.979 709.38C478.487 706.673 478.01 703.888 478.862 701.295C479.679 698.804 481.677 696.626 483.828 694.883L484.095 694.667L484.439 694.66Z" fill="#4E5968" stroke="#4E5968" stroke-width="2"/>
<path d="M390.596 236.051C394.761 235.992 397.597 236.834 399.297 238.546C401.022 240.285 401.342 242.675 401.061 245.117C400.779 247.56 399.873 250.263 398.896 252.863C397.898 255.514 396.837 258.032 396.132 260.282C386.522 290.943 376.891 325.025 383.196 356.919C383.571 358.814 384.506 360.712 385.592 362.678C386.649 364.592 387.879 366.614 388.659 368.571C389.449 370.552 389.861 372.655 389.135 374.763C388.41 376.868 386.626 378.763 383.513 380.509L383.293 380.632L383.042 380.637C380.789 380.679 378.674 380.39 376.812 379.495C374.929 378.59 373.378 377.1 372.207 374.875C366.514 364.06 364.332 350.745 364.144 337.332C363.955 323.907 365.762 310.306 368.114 298.862C372.21 278.942 377.591 258.081 386.058 239.616L386.062 239.607L386.066 239.597C386.255 239.207 386.602 238.842 386.907 238.556C387.238 238.246 387.633 237.926 388.024 237.63C388.808 237.037 389.641 236.489 390.064 236.213L390.307 236.055L390.596 236.051Z" fill="#4E5968" stroke="#4E5968" stroke-width="2"/>
<path d="M234.163 694.166C239.642 694.493 243.138 697.972 243.291 702.088C243.44 706.082 240.433 710.09 234.238 711.901L233.628 712.07C213.448 717.329 199.695 726.402 183.975 738.646L182.448 739.841C179.968 741.789 176.538 745.39 172.637 749.801C168.75 754.196 164.453 759.328 160.241 764.304C156.037 769.27 151.916 774.083 148.405 777.806C146.649 779.666 145.032 781.271 143.621 782.492C142.241 783.687 140.96 784.606 139.888 784.974L139.7 785.038L139.503 785.026C136.81 784.865 134.736 784.319 133.239 783.391C131.705 782.44 130.822 781.113 130.511 779.543C130.208 778.016 130.459 776.334 131.018 774.634C131.58 772.925 132.479 771.122 133.56 769.316C135.721 765.706 138.681 761.972 141.371 758.795C144.11 755.561 146.483 752.999 147.658 751.527L149.008 749.852C163.036 732.585 179.555 716.974 199.857 707.159L201.872 706.192C212.004 701.371 222.962 696.752 233.875 694.19L234.018 694.157L234.163 694.166Z" fill="#4E5968" stroke="#4E5968" stroke-width="2"/>
<path d="M553.089 349.923C553.683 349.941 554.364 349.989 554.918 350.124L555.148 350.188L555.218 350.209L555.283 350.241C558.944 352.012 563.014 356.321 566.542 360.833C570.104 365.387 573.24 370.316 575.021 373.518H575.022C577.424 377.828 582.119 386.019 584.653 393.979C585.918 397.954 586.678 401.971 586.288 405.47C585.893 409.017 584.303 412.075 580.882 413.925L580.648 414.051L580.381 414.045C576.98 413.96 574.559 413.303 572.833 412.091C571.084 410.862 570.181 409.157 569.626 407.272C569.086 405.435 568.842 403.282 568.505 401.164C568.182 399.135 567.764 397.039 566.933 394.94L566.761 394.521C562.219 383.805 555.296 374.397 547.931 365.329L546.452 363.52C545.336 362.161 544.711 360.796 544.531 359.44C544.352 358.081 544.63 356.81 545.191 355.656C546.291 353.393 548.503 351.528 550.673 350.098L550.91 349.94L551.196 349.933C551.67 349.919 552.38 349.901 553.089 349.923Z" fill="#4E5968" stroke="#4E5968" stroke-width="2"/>
<path d="M378.375 425.273C381.025 425.089 383.174 425.417 384.891 426.226C386.624 427.043 387.846 428.316 388.681 429.886C390.209 432.757 390.456 436.646 390.39 440.654L390.373 441.457C390.296 444.502 390.445 447.624 389.893 450.397C389.321 453.271 387.992 455.878 384.963 458.037L384.763 458.179L384.52 458.213C381.134 458.683 378.569 458.117 376.701 456.694C374.85 455.284 373.848 453.156 373.312 450.844C372.776 448.531 372.681 445.923 372.729 443.41C372.776 440.943 372.973 438.35 373.042 436.339C373.122 433.943 373.334 432.024 374.04 430.296C374.755 428.545 375.939 427.081 377.797 425.507L378.047 425.295L378.375 425.273Z" fill="#4E5968" stroke="#4E5968" stroke-width="2"/>
<path d="M322.664 425.308C326.318 425.135 328.985 426.042 330.836 427.808C332.662 429.551 333.55 431.996 333.948 434.612C334.347 437.232 334.271 440.14 334.073 442.932C333.973 444.332 333.841 445.72 333.719 447.036C333.595 448.357 333.482 449.604 333.416 450.748C333.308 452.605 332.702 454.01 331.752 455.181C330.83 456.316 329.605 457.202 328.344 458.066L328.126 458.216L327.861 458.238C324.516 458.512 322.004 457.787 320.193 456.259C318.402 454.748 317.441 452.569 316.939 450.218C316.437 447.866 316.373 445.239 316.456 442.709C316.538 440.2 316.774 437.653 316.891 435.594L316.952 434.743C317.119 432.81 317.477 431.247 318.204 429.842C319.035 428.235 320.3 426.93 322.093 425.521L322.344 425.324L322.664 425.308Z" fill="#4E5968" stroke="#4E5968" stroke-width="2"/>
<path d="M620.834 475.441C621.375 475.454 621.929 475.485 622.402 475.543C622.638 475.572 622.871 475.611 623.083 475.663C623.226 475.699 623.407 475.752 623.584 475.84L623.759 475.94L623.761 475.942C627.816 478.649 629.759 481.298 629.751 483.956C629.744 486.599 627.804 488.733 625.467 490.406C623.085 492.111 620 493.546 617.141 494.733C614.205 495.952 611.623 496.867 609.934 497.633L609.809 497.69L609.674 497.71C609.051 497.807 607.996 497.932 606.955 497.938C606.434 497.941 605.89 497.913 605.393 497.829C604.918 497.749 604.377 497.6 603.946 497.283L603.294 496.789C600.155 494.317 598.745 491.837 598.901 489.354C599.063 486.764 600.915 484.601 603.162 482.864C607.668 479.377 614.772 476.862 617.817 475.56L617.973 475.492L618.144 475.482C618.637 475.449 619.753 475.413 620.834 475.441Z" fill="#4E5968" stroke="#4E5968" stroke-width="2"/>
</g>
<defs>
<clipPath id="clip0_689_387">
<rect width="746" height="746" fill="white"/>
</clipPath>
</defs>
</svg>
