<svg width="746" height="746" viewBox="0 0 746 746" fill="none" xmlns="http://www.w3.org/2000/svg">
<mask id="mask0_690_559" style="mask-type:alpha" maskUnits="userSpaceOnUse" x="83" y="83" width="580" height="580">
<rect x="83" y="83" width="579.592" height="579.592" fill="#D9D9D9"/>
</mask>
<g mask="url(#mask0_690_559)">
<path d="M234.841 607.35C230.213 602.721 227.898 596.986 227.898 590.143V393.323C206.164 387.689 188.655 376.217 175.373 358.91C162.09 341.603 155.449 322.082 155.449 300.347V155.449C155.449 148.607 157.764 142.871 162.392 138.243C167.021 133.614 172.756 131.3 179.599 131.3C186.441 131.3 192.177 133.614 196.806 138.243C201.434 142.871 203.749 148.607 203.749 155.449V276.198H227.898V155.449C227.898 148.607 230.213 142.871 234.841 138.243C239.47 133.614 245.205 131.3 252.048 131.3C258.89 131.3 264.626 133.614 269.255 138.243C273.883 142.871 276.198 148.607 276.198 155.449V276.198H300.347V155.449C300.347 148.607 302.662 142.871 307.29 138.243C311.919 133.614 317.654 131.3 324.497 131.3C331.339 131.3 337.075 133.614 341.704 138.243C346.332 142.871 348.647 148.607 348.647 155.449V300.347C348.647 322.082 342.005 341.603 328.723 358.91C315.441 376.217 297.932 387.689 276.198 393.323V590.143C276.198 596.986 273.883 602.721 269.255 607.35C264.626 611.978 258.89 614.293 252.048 614.293C245.205 614.293 239.47 611.978 234.841 607.35Z" fill="#E48414"/>
<path d="M469.395 590.143C469.395 596.986 471.71 602.721 476.338 607.35C480.967 611.978 486.703 614.293 493.545 614.293C500.387 614.293 506.123 611.978 510.752 607.35C515.38 602.721 517.695 596.986 517.695 590.143V384.267C539.429 377.022 556.938 361.929 570.22 338.987C583.502 316.044 590.144 289.882 590.144 260.5C590.144 224.678 580.685 194.189 561.768 169.033C542.851 143.878 520.11 131.3 493.545 131.3C466.98 131.3 444.239 143.777 425.322 168.732C406.405 193.686 396.946 224.075 396.946 259.897C396.946 289.279 403.587 315.541 416.87 338.685C430.152 361.828 447.661 377.022 469.395 384.267V590.143Z" fill="#FFCD50"/>
</g>
</svg>
