<svg width="746" height="746" viewBox="0 0 746 746" fill="none" xmlns="http://www.w3.org/2000/svg">
<mask id="mask0_690_494" style="mask-type:alpha" maskUnits="userSpaceOnUse" x="152" y="156" width="443" height="433">
<path d="M371.578 156.002C372.119 156 372.656 156.001 373.189 156.005V193.912C371.486 193.767 369.696 193.655 367.81 193.573C332.122 201.594 330.626 228.973 319.494 230.077C264.234 235.558 282.446 242.771 263.918 271.126C248.021 295.452 216.184 267.905 232.2 329.536L373.189 329.46V588.363C372.301 588.347 371.436 588.335 370.596 588.331C338.23 588.144 290.245 588.33 277.053 575.642C270.821 571.548 271.283 558.706 271.341 551.394C269.305 550.7 267.273 549.988 265.248 549.257C222.062 534.059 186.904 501.959 167.842 460.326C154.099 430.313 146.707 383.907 156.43 350.112C159.401 339.793 179.333 332.106 189.399 327.72C194.199 312.357 187.415 295.401 193.857 280.001C200.998 262.933 216.436 251.912 232.699 244.832C244.122 220.305 261.851 196.36 292.529 195.412C295.404 195.322 296.181 195.184 298.745 193.721L299.717 194.295C317.046 171.491 329.208 162.903 357.183 156.528C361.962 156.229 366.78 156.052 371.578 156.002Z" fill="white"/>
<path d="M374.61 156.001C374.069 155.999 373.533 156.001 373.001 156.005V193.911C374.703 193.767 376.493 193.654 378.379 193.572C414.067 201.593 415.563 228.972 426.695 230.076C481.955 235.557 463.743 242.77 482.27 271.124C498.168 295.451 530.006 267.903 513.99 329.534L373.001 329.459V588.363C373.889 588.347 374.753 588.335 375.592 588.33C407.958 588.144 455.943 588.33 469.135 575.642C475.367 571.548 474.906 558.706 474.847 551.394C476.883 550.7 478.916 549.988 480.94 549.257C524.127 534.059 559.284 501.959 578.346 460.326C592.089 430.313 599.482 383.907 589.758 350.112C586.788 339.792 566.855 332.105 556.79 327.72C551.989 312.356 558.774 295.401 552.332 280C545.19 262.933 529.752 251.912 513.49 244.831C502.067 220.304 484.337 196.36 453.66 195.411C450.785 195.322 450.007 195.184 447.443 193.721L446.471 194.294C429.142 171.491 416.981 162.903 389.006 156.528C384.227 156.228 379.408 156.052 374.61 156.001Z" fill="white"/>
</mask>
<g mask="url(#mask0_690_494)">
<rect x="129" y="330" width="489" height="300" fill="#E48414"/>
</g>
<mask id="mask1_690_494" style="mask-type:alpha" maskUnits="userSpaceOnUse" x="152" y="157" width="443" height="433">
<path d="M371.579 157.002C372.12 157 372.656 157.001 373.189 157.006V369.031L190.857 369.032C189.728 414.33 194.901 447.306 227.242 481.712C269.802 526.993 318.937 519.898 373.189 519.444V589.363C372.301 589.347 371.437 589.336 370.597 589.331C338.231 589.144 290.245 589.33 277.053 576.642C270.821 572.548 271.283 559.707 271.341 552.395C269.306 551.702 267.274 550.988 265.25 550.258C222.063 535.059 186.904 502.96 167.842 461.326C154.1 431.314 146.708 384.908 156.431 351.112C159.402 340.793 179.334 333.106 189.399 328.72C194.199 313.357 187.416 296.401 193.858 281.001C201 263.933 216.436 252.912 232.699 245.832C244.122 221.305 261.852 197.36 292.529 196.412C295.404 196.322 296.182 196.184 298.746 194.721L299.717 195.295C317.046 172.492 329.208 163.903 357.183 157.528C361.962 157.229 366.78 157.052 371.579 157.002Z" fill="white"/>
<path d="M374.611 157.001C374.07 156.999 373.533 157.001 373 157.005V369.031L555.332 369.033C556.461 414.331 551.288 447.307 518.948 481.712C476.388 526.993 427.252 519.897 373 519.443V589.363C373.888 589.347 374.753 589.335 375.592 589.331C407.958 589.144 455.944 589.33 469.136 576.642C475.368 572.548 474.906 559.707 474.848 552.395C476.884 551.701 478.916 550.988 480.94 550.257C524.127 535.059 559.285 502.959 578.347 461.326C592.09 431.313 599.481 384.907 589.758 351.112C586.787 340.792 566.856 333.106 556.79 328.72C551.99 313.357 558.773 296.401 552.332 281C545.19 263.933 529.753 252.912 513.491 245.831C502.067 221.304 484.338 197.36 453.661 196.412C450.786 196.322 450.008 196.184 447.444 194.721L446.472 195.294C429.143 172.491 416.981 163.903 389.006 157.528C384.227 157.229 379.409 157.052 374.611 157.001Z" fill="white"/>
</mask>
<g mask="url(#mask1_690_494)">
<rect x="129" y="97.9995" width="489" height="232" fill="#FFCD50"/>
</g>
</svg>
