<svg width="746" height="746" viewBox="0 0 746 746" fill="none" xmlns="http://www.w3.org/2000/svg">
<mask id="mask0_690_379" style="mask-type:alpha" maskUnits="userSpaceOnUse" x="103" y="102" width="542" height="542">
<rect x="103" y="102" width="541.5" height="541.5" fill="#DC7C0B"/>
</mask>
<g mask="url(#mask0_690_379)">
<path d="M375.445 598.373C343.857 598.373 314.244 592.356 286.605 580.323C258.966 568.289 234.899 552.026 214.405 531.531C193.911 511.037 177.647 486.97 165.613 459.331C153.58 431.692 147.563 402.079 147.563 370.491C147.563 323.862 160.443 281.558 186.202 243.577C211.961 205.597 246.462 177.77 289.707 160.096C294.972 158.216 300.424 157.558 306.065 158.122C311.706 158.686 316.406 160.472 320.167 163.48C323.175 166.113 325.525 169.779 327.217 174.48C328.91 179.18 329.756 185.291 329.756 192.812C330.508 222.519 336.524 250.816 347.806 277.703C359.087 304.59 375.257 328.563 396.315 349.621C417.373 370.679 441.44 386.849 468.515 398.13C495.59 409.412 523.981 415.428 553.688 416.181C561.585 416.181 567.602 416.839 571.738 418.155C575.875 419.471 579.259 421.633 581.892 424.641C584.9 428.402 586.874 433.29 587.814 439.307C588.754 445.324 588.284 450.776 586.404 455.665C569.106 498.91 541.279 533.505 502.923 559.452C464.567 585.399 422.074 598.373 375.445 598.373Z" fill="#3182F6"/>
</g>
<path d="M379.769 251.456L415.869 287.556C420.381 292.069 425.646 294.325 431.663 294.325C437.679 294.325 442.944 292.069 447.456 287.556L483.556 251.456C488.069 246.944 490.325 241.679 490.325 235.663C490.325 229.646 488.069 224.381 483.556 219.869L447.456 183.769C442.944 179.256 437.679 177 431.663 177C425.646 177 420.381 179.256 415.869 183.769L379.769 219.869C375.256 224.381 373 229.646 373 235.663C373 241.679 375.256 246.944 379.769 251.456Z" fill="#E8F2FE"/>
<path d="M515.144 341.706L528.681 355.244C533.194 359.756 538.458 362.012 544.475 362.012C550.492 362.012 555.756 359.756 560.269 355.244L573.806 341.706C578.319 337.194 580.575 331.929 580.575 325.912C580.575 319.896 578.319 314.631 573.806 310.119L560.269 296.581C555.756 292.069 550.492 289.812 544.475 289.812C538.458 289.812 533.194 292.069 528.681 296.581L515.144 310.119C510.631 314.631 508.375 319.896 508.375 325.912C508.375 331.929 510.631 337.194 515.144 341.706Z" fill="#E8F2FE"/>
</svg>
