<svg width="746" height="746" viewBox="0 0 746 746" fill="none" xmlns="http://www.w3.org/2000/svg">
<rect width="746" height="746" fill="#94E886"/>
<mask id="mask0_689_387" style="mask-type:alpha" maskUnits="userSpaceOnUse" x="130" y="130" width="486" height="486">
<rect x="130" y="130" width="486" height="486" fill="#D9D9D9"/>
</mask>
<g mask="url(#mask0_689_387)">
<path d="M373.004 494.5C418.229 494.5 456.536 478.722 487.923 447.166C519.311 415.609 535.004 377.388 535.004 332.5C535.004 322.038 534.161 311.997 532.473 302.378C530.786 292.759 528.086 283.394 524.373 274.281C515.261 280.019 505.642 284.406 495.517 287.444C485.392 290.481 474.929 292 464.129 292C445.904 292 428.776 287.866 412.745 279.597C396.714 271.328 383.467 259.6 373.004 244.413C362.542 259.6 349.295 271.328 333.264 279.597C317.233 287.866 300.105 292 281.88 292C271.08 292 260.617 290.481 250.492 287.444C240.367 284.406 230.748 280.019 221.636 274.281C217.923 283.394 215.223 292.759 213.536 302.378C211.848 311.997 211.004 322.038 211.004 332.5C211.004 377.388 226.783 415.609 258.339 447.166C289.895 478.722 328.117 494.5 373.004 494.5ZM330.226 370.722C335.12 365.828 337.567 359.837 337.567 352.75C337.567 345.663 335.12 339.672 330.226 334.778C325.333 329.884 319.342 327.438 312.254 327.438C305.167 327.438 299.176 329.884 294.283 334.778C289.389 339.672 286.942 345.663 286.942 352.75C286.942 359.837 289.389 365.828 294.283 370.722C299.176 375.616 305.167 378.062 312.254 378.062C319.342 378.062 325.333 375.616 330.226 370.722ZM451.726 370.722C456.62 365.828 459.067 359.837 459.067 352.75C459.067 345.663 456.62 339.672 451.726 334.778C446.833 329.884 440.842 327.438 433.754 327.438C426.667 327.438 420.676 329.884 415.783 334.778C410.889 339.672 408.442 345.663 408.442 352.75C408.442 359.837 410.889 365.828 415.783 370.722C420.676 375.616 426.667 378.062 433.754 378.062C440.842 378.062 446.833 375.616 451.726 370.722ZM174.554 575.5C162.742 575.5 152.786 571.113 144.686 562.338C136.586 553.563 133.042 543.269 134.054 531.456L152.279 331.487C154.979 303.137 162.658 276.644 175.314 252.006C187.97 227.369 204.17 206.022 223.914 187.966C243.658 169.909 266.27 155.734 291.751 145.441C317.233 135.147 344.317 130 373.004 130C401.692 130 428.776 135.147 454.258 145.441C479.739 155.734 502.351 169.909 522.095 187.966C541.839 206.022 558.039 227.369 570.695 252.006C583.351 276.644 591.03 303.137 593.73 331.487L611.954 531.456C612.967 543.269 609.423 553.563 601.323 562.338C593.223 571.113 583.267 575.5 571.454 575.5H174.554Z" fill="#30AE4B"/>
</g>
</svg>
