<svg width="746" height="746" viewBox="0 0 746 746" fill="none" xmlns="http://www.w3.org/2000/svg">
<g clip-path="url(#clip0_690_291)">
<path d="M224.632 461.812C223.776 456.389 222.326 450.78 221.461 445.172C218.492 426.749 218.956 407.934 222.831 389.683C231.68 348.483 254.402 314.103 289.945 290.975C323.029 269.448 365.489 260.819 404.245 269.305C444.757 277.893 480.153 302.336 502.531 337.184C520.887 365.845 529.292 399.755 526.44 433.669C525.629 443.338 523.925 452.191 521.828 461.63C532.13 464.757 541.573 467.165 552.038 470.669C581.795 480.597 610.216 494.159 636.654 511.048C645.378 516.638 656.299 522.865 661.115 532.126C665.627 540.809 666.853 549.6 663.997 558.998C661.5 567.4 655.758 574.457 648.042 578.613C642.997 581.28 638.407 582.14 632.724 582.188C618.477 582.31 604.167 582.247 589.916 582.24L510.051 582.225L266.349 582.229L165.084 582.24L131.776 582.243C112.775 582.24 95.2301 584.925 84.9695 564.81C80.7772 556.572 80.0241 547.007 82.8754 538.216C86.8291 526.08 94.3632 521.409 104.44 514.748C117.609 505.995 131.317 498.082 145.482 491.055C173.004 477.33 195.673 469.932 224.632 461.812Z" fill="#E8F2FE"/>
<path d="M224.632 461.812C223.775 456.389 222.326 450.78 221.461 445.172C218.491 426.749 218.956 407.934 222.831 389.683C231.68 348.483 254.402 314.103 289.945 290.975C323.029 269.448 365.489 260.819 404.245 269.305C444.757 277.893 480.153 302.336 502.531 337.184C520.887 365.845 529.292 399.755 526.44 433.669C525.628 443.338 523.924 452.191 521.828 461.63C518.479 460.4 511.889 459 508.295 458.182C499.101 456.089 489.862 454.207 480.579 452.54C407.779 439.178 333.12 439.559 260.459 453.666C252.573 455.151 244.719 456.803 236.902 458.619C234.233 459.226 226.901 460.893 224.632 461.812Z" fill="#3182F6"/>
<path d="M370.523 122.252C381.018 121.598 389.275 126.197 393.458 136.051C394.069 137.488 394.684 141.696 394.717 143.282C394.943 154.99 394.769 166.727 394.824 178.439C394.817 187.355 394.947 196.585 394.632 205.473C394.554 207.705 393.42 212.507 392.302 214.429C388.349 221.221 384.233 223.62 376.932 225.577C364.87 226.987 354.831 220.618 352.207 208.521C351.497 205.246 351.802 199.365 351.798 195.956L351.785 175.193L351.79 153.94C351.797 138.536 352.045 125.939 370.523 122.252Z" fill="#3182F6"/>
<path d="M558.265 207.834C563.414 207.369 567.712 207.807 572.312 210.546C577.05 213.365 580.466 217.961 581.796 223.312C585.171 236.778 575.706 244.147 567.304 252.589L552.123 267.836C547.9 272.074 543.599 276.337 539.399 280.591C535.027 285.018 532.386 286.481 526.411 287.889C521.28 288.436 516.464 288.107 511.886 285.478C507.144 282.758 503.784 277.84 502.473 272.582C501.287 267.832 501.973 261.163 504.699 256.933C507.625 252.389 544.203 215.033 548.808 211.704C551.697 209.615 554.835 208.608 558.265 207.834Z" fill="#3182F6"/>
<path d="M181.889 207.829C187.245 207.414 192.056 208.169 196.712 210.986C200.29 213.15 237.544 250.981 240.98 255.485C242.595 257.602 243.484 260 244.12 262.565C245.459 267.991 244.567 273.727 241.642 278.489C238.336 283.82 233.731 286.541 227.761 287.918C223.54 288.328 215.036 287.788 211.944 284.863C197.63 271.317 182.526 256.588 169.162 242.131C158.301 230.381 165.423 211.2 181.889 207.829Z" fill="#3182F6"/>
<path d="M101.407 386.378C109.682 385.719 122.746 386.378 131.56 386.219C136.671 386.126 151.716 385.819 156.116 386.286C158.84 386.549 161.487 387.33 163.914 388.594C180.097 397.095 178.073 421.815 158.518 427.19C151.264 428.053 137.201 427.146 129.281 427.424C121.504 426.686 110.145 428.498 102.708 427.264C79.6052 423.434 78.5316 392.987 101.407 386.378Z" fill="#3182F6"/>
<path d="M589.015 386.345C596.642 385.815 605.033 386.334 612.764 386.175C622.359 386.478 632.487 385.704 642.033 386.219C666.245 387.527 669.35 422.115 644.519 427.316C634.113 427.716 622.592 427.275 612.057 427.401C607 427.464 594.186 427.783 589.678 427.264C586.918 426.953 584.255 426.09 581.836 424.727C571.76 419.122 569.318 405.315 575.001 395.743C578.25 390.264 583.125 387.864 589.015 386.345Z" fill="#3182F6"/>
</g>
<defs>
<clipPath id="clip0_690_291">
<rect width="746" height="746" fill="white"/>
</clipPath>
</defs>
</svg>
