<svg width="746" height="746" viewBox="0 0 746 746" fill="none" xmlns="http://www.w3.org/2000/svg">
<mask id="mask0_689_213" style="mask-type:alpha" maskUnits="userSpaceOnUse" x="151" y="156" width="444" height="433">
<path d="M371.578 156.001C372.119 155.999 372.656 156.001 373.189 156.005V193.912C371.486 193.767 369.696 193.655 367.81 193.573C332.122 201.594 330.626 228.973 319.494 230.077C264.234 235.558 282.446 242.77 263.918 271.125C248.021 295.451 216.183 267.904 232.199 329.536L373.189 329.459V588.363C372.3 588.347 371.435 588.335 370.596 588.33C338.23 588.144 290.245 588.33 277.053 575.642C270.821 571.548 271.283 558.707 271.341 551.395C269.305 550.701 267.272 549.988 265.248 549.257C222.061 534.059 186.904 501.959 167.842 460.326C154.099 430.313 146.707 383.907 156.43 350.112C159.401 339.792 179.333 332.106 189.399 327.72C194.199 312.357 187.415 295.401 193.857 280C200.998 262.933 216.436 251.912 232.698 244.831C244.122 220.305 261.851 196.361 292.528 195.412C295.403 195.323 296.181 195.185 298.745 193.722L299.717 194.294C317.046 171.491 329.208 162.903 357.183 156.528C361.962 156.229 366.78 156.052 371.578 156.001Z" fill="white"/>
<path d="M374.61 156.001C374.07 155.999 373.533 156 373.001 156.005V193.911C374.704 193.767 376.493 193.654 378.379 193.571C414.067 201.592 415.563 228.972 426.695 230.075C481.956 235.557 463.743 242.77 482.27 271.125C498.168 295.452 530.005 267.903 513.989 329.534L373.001 329.459V588.362C373.889 588.346 374.753 588.335 375.593 588.33C407.958 588.144 455.943 588.329 469.136 575.642C475.368 571.548 474.906 558.706 474.848 551.395C476.883 550.701 478.916 549.987 480.94 549.257C524.127 534.058 559.284 501.959 578.347 460.325C592.089 430.313 599.482 383.907 589.759 350.111C586.788 339.792 566.855 332.105 556.79 327.72C551.99 312.356 558.774 295.401 552.332 280C545.19 262.933 529.753 251.912 513.491 244.831C502.068 220.304 484.338 196.36 453.66 195.412C450.785 195.323 450.008 195.185 447.443 193.722L446.473 194.294C429.143 171.491 416.981 162.903 389.006 156.527C384.227 156.228 379.409 156.052 374.61 156.001Z" fill="white"/>
</mask>
<g mask="url(#mask0_689_213)">
<rect x="129" y="330" width="489" height="300" fill="#FF19A3"/>
</g>
<mask id="mask1_689_213" style="mask-type:alpha" maskUnits="userSpaceOnUse" x="152" y="157" width="443" height="433">
<path d="M371.578 157.001C372.119 157 372.656 157.001 373.189 157.005V369.031L190.856 369.033C189.728 414.331 194.901 447.307 227.241 481.712C269.801 526.993 318.937 519.898 373.189 519.444V589.363C372.301 589.347 371.436 589.335 370.597 589.331C338.231 589.144 290.245 589.33 277.053 576.642C270.821 572.548 271.283 559.707 271.341 552.395C269.305 551.701 267.273 550.988 265.249 550.257C222.062 535.059 186.904 502.959 167.842 461.326C154.099 431.313 146.708 384.907 156.431 351.112C159.402 340.793 179.333 333.106 189.398 328.72C194.199 313.357 187.416 296.402 193.857 281.001C200.999 263.934 216.436 252.912 232.698 245.832C244.122 221.305 261.851 197.361 292.528 196.413C295.403 196.323 296.181 196.185 298.745 194.722L299.717 195.295C317.046 172.492 329.208 163.903 357.183 157.528C361.961 157.229 366.78 157.052 371.578 157.001Z" fill="white"/>
<path d="M374.611 157.001C374.07 156.999 373.533 157.001 373 157.005V369.031L555.332 369.032C556.461 414.33 551.288 447.307 518.947 481.712C476.388 526.993 427.252 519.897 373 519.443V589.363C373.888 589.347 374.753 589.335 375.592 589.33C407.958 589.144 455.944 589.33 469.136 576.642C475.368 572.548 474.906 559.707 474.848 552.395C476.884 551.701 478.916 550.988 480.94 550.257C524.126 535.059 559.285 502.959 578.347 461.325C592.09 431.313 599.481 384.907 589.758 351.112C586.787 340.792 566.855 333.105 556.79 328.72C551.99 313.357 558.773 296.402 552.331 281.001C545.19 263.934 529.753 252.912 513.49 245.831C502.067 221.304 484.338 197.361 453.66 196.412C450.785 196.323 450.008 196.185 447.444 194.722L446.472 195.295C429.143 172.492 416.981 163.903 389.006 157.528C384.227 157.228 379.409 157.052 374.611 157.001Z" fill="white"/>
</mask>
<g mask="url(#mask1_689_213)">
<rect x="129" y="97.9995" width="489" height="232" fill="#FFB9ED"/>
</g>
</svg>
