<svg width="746" height="746" viewBox="0 0 746 746" fill="none" xmlns="http://www.w3.org/2000/svg">
<mask id="mask0_690_301" style="mask-type:alpha" maskUnits="userSpaceOnUse" x="152" y="156" width="443" height="433">
<path d="M371.578 156.001C372.119 156 372.655 156.001 373.188 156.005V193.912C371.485 193.767 369.696 193.655 367.81 193.573C332.122 201.594 330.626 228.973 319.494 230.077C264.233 235.558 282.446 242.771 263.919 271.125C248.021 295.452 216.184 267.904 232.2 329.536L373.188 329.459V588.363C372.3 588.347 371.436 588.335 370.596 588.331C338.23 588.144 290.244 588.33 277.052 575.642C270.82 571.548 271.282 558.707 271.34 551.395C269.305 550.701 267.273 549.988 265.249 549.257C222.062 534.059 186.903 501.959 167.841 460.326C154.099 430.313 146.707 383.907 156.43 350.112C159.401 339.793 179.333 332.106 189.398 327.72C194.198 312.357 187.415 295.401 193.857 280C200.999 262.933 216.435 251.912 232.698 244.832C244.121 220.305 261.851 196.36 292.528 195.412C295.403 195.322 296.181 195.184 298.745 193.721L299.716 194.294C317.045 171.491 329.207 162.903 357.182 156.528C361.961 156.229 366.779 156.052 371.578 156.001Z" fill="white"/>
<path d="M374.61 156.001C374.069 155.999 373.533 156.001 373 156.005V193.911C374.703 193.767 376.493 193.654 378.379 193.572C414.067 201.592 415.563 228.971 426.694 230.075C481.955 235.557 463.743 242.77 482.27 271.124C498.168 295.451 530.005 267.903 513.989 329.534L373 329.459V588.363C373.888 588.347 374.752 588.335 375.592 588.33C407.957 588.144 455.943 588.33 469.136 575.642C475.368 571.548 474.906 558.707 474.848 551.395C476.883 550.701 478.915 549.988 480.939 549.257C524.126 534.059 559.284 501.959 578.347 460.325C592.089 430.313 599.481 383.907 589.758 350.112C586.787 339.792 566.855 332.105 556.79 327.72C551.99 312.356 558.773 295.401 552.331 280C545.189 262.933 529.753 251.912 513.49 244.831C502.067 220.304 484.338 196.36 453.66 195.411C450.785 195.322 450.008 195.184 447.443 193.721L446.472 194.294C429.143 171.491 416.981 162.903 389.006 156.528C384.227 156.228 379.409 156.052 374.61 156.001Z" fill="white"/>
</mask>
<g mask="url(#mask0_690_301)">
<rect x="129" y="330" width="489" height="300" fill="#3182F6"/>
</g>
<mask id="mask1_690_301" style="mask-type:alpha" maskUnits="userSpaceOnUse" x="152" y="157" width="443" height="433">
<path d="M371.578 157.002C372.119 157 372.656 157.001 373.188 157.005V369.031L190.856 369.033C189.727 414.331 194.901 447.306 227.242 481.711C269.801 526.992 318.937 519.898 373.188 519.444V589.363C372.3 589.347 371.435 589.335 370.596 589.331C338.23 589.144 290.245 589.33 277.053 576.642C270.821 572.548 271.283 559.707 271.341 552.395C269.305 551.701 267.273 550.988 265.248 550.257C222.062 535.059 186.904 502.959 167.842 461.326C154.099 431.313 146.707 384.907 156.43 351.112C159.401 340.793 179.334 333.106 189.399 328.72C194.199 313.357 187.415 296.401 193.857 281.001C200.998 263.933 216.436 252.912 232.699 245.832C244.122 221.305 261.851 197.361 292.529 196.413C295.403 196.323 296.182 196.185 298.745 194.722L299.717 195.295C317.046 172.492 329.208 163.903 357.183 157.528C361.962 157.229 366.78 157.052 371.578 157.002Z" fill="white"/>
<path d="M374.61 157.001C374.069 156.999 373.532 157.001 373 157.005V369.031L555.333 369.033C556.461 414.33 551.287 447.307 518.947 481.712C476.387 526.993 427.251 519.897 373 519.443V589.363C373.888 589.347 374.753 589.335 375.592 589.33C407.958 589.144 455.943 589.33 469.135 576.642C475.367 572.548 474.906 559.707 474.847 552.395C476.883 551.701 478.916 550.988 480.94 550.257C524.127 535.059 559.284 502.959 578.346 461.326C592.089 431.313 599.482 384.907 589.758 351.112C586.788 340.792 566.855 333.105 556.79 328.72C551.99 313.357 558.774 296.401 552.332 281C545.19 263.933 529.753 252.912 513.491 245.831C502.068 221.304 484.337 197.361 453.66 196.412C450.785 196.323 450.007 196.185 447.443 194.722L446.472 195.294C429.143 172.491 416.981 163.903 389.006 157.528C384.227 157.228 379.408 157.052 374.61 157.001Z" fill="white"/>
</mask>
<g mask="url(#mask1_690_301)">
<rect x="129" y="97.9995" width="489" height="232" fill="#E8F2FE"/>
</g>
</svg>
