<svg width="746" height="746" viewBox="0 0 746 746" fill="none" xmlns="http://www.w3.org/2000/svg">
<g clip-path="url(#clip0_689_393)">
<rect width="1254" height="1254" transform="translate(-254 -194)" fill="#89DBFF"/>
<path d="M297.083 360.171C310.137 359.243 308.071 372.669 307.463 381.706C307.17 386.052 305.972 387.583 302.625 390.135C289.651 391.699 291.558 377.214 292.235 368.576C292.582 364.143 293.661 362.769 297.083 360.171Z" fill="#2585F5"/>
<path d="M385.283 354.271C396.011 311.494 453.463 304.139 489.105 315.496C505.687 320.78 518.416 329.929 526.352 345.572C531.177 345.31 554.046 342.292 545.223 357.183C543 360.935 535.665 361.081 531.458 361.322C532.34 385.781 527.117 406.688 506.17 421.93C487.097 435.805 463.816 438.444 440.953 434.703C408.036 427.649 384.573 404.384 383.385 369.887C371.084 366.219 365.812 366.562 353.323 369.746C352.119 388.903 346.379 403.781 331.878 416.873C291.989 452.888 212.159 438.799 205.379 379.17C204.668 372.915 205.007 367.185 205.331 360.953C200.064 360.938 195.489 361.599 191.519 357.599C188.586 354.731 188.828 350.298 191.771 347.542C196.071 343.514 204.661 345.261 210.34 345.516C212.525 341.059 215.321 336.927 218.647 333.241C233.183 317.135 254.502 311.834 275.382 310.805C309.401 309.892 339.443 319.954 351.407 354.104C364.122 350.883 372.823 350.711 385.283 354.271ZM516.107 364.218C513.236 333.748 474.361 323.365 449.147 326.705C421.636 329.256 395.215 342.33 398.73 374.358C400.285 387.653 407.167 399.748 417.803 407.877C431.182 418.301 450.426 422.383 467.05 420.277C497.837 416.411 519.163 396.617 516.107 364.218ZM320.403 336.613C307.451 328.347 286.237 324.544 271.031 326.703C241.364 329.478 216.814 343.816 220.445 377.178C221.84 389.364 227.983 400.509 237.54 408.195C251.608 419.383 270.911 422.193 288.324 420.038L289.013 419.952C305.639 416.869 319.943 410.486 329.781 396.055C342.883 376.838 341.017 349.769 320.403 336.613Z" fill="#2585F5"/>
<path d="M434.139 360.097C446.415 359.317 445.093 371.734 444.554 380.463C444.266 385.15 443.262 387.304 439.607 390.095C430.024 391.294 428.622 383.588 428.879 375.981C429.106 369.029 428.328 364.514 434.139 360.097Z" fill="#2585F5"/>
<path d="M161.492 345.588C167.63 345.286 177.974 345.621 176.409 354.889C175.27 361.636 164.849 360.453 159.693 362.034C154.454 363.639 149.605 366.042 145.862 370.238C129.764 390.529 135.683 423.564 156.683 438.18C163.75 443.103 168.847 444.119 177.096 445.669C176.93 444.811 176.778 443.948 176.638 443.085C175.453 435.841 166.902 386.069 186.304 398.674C190.281 401.258 189.099 413.52 189.371 418.433C191.39 454.865 202.179 489.95 230.842 514.4C315.253 590.975 514.644 576.8 544.537 450.016C547.788 436.227 548.701 418.948 548.897 404.509C548.982 397.843 556.979 393.877 562.325 399.457C566.929 408.402 562.398 436.264 561.339 445.43C575.422 443.452 585.133 438.254 593.111 426.069C600.422 414.898 603.3 400.4 600.526 387.347C597.912 375.036 589.976 363.933 576.916 361.697C572.893 360.873 566.151 361.623 562.747 359.204C559.753 357.074 558.828 351.544 561.908 348.973C565.46 346.012 570.45 345.127 574.816 345.472C586.511 346.506 597.306 352.208 604.745 361.292C613.715 372.136 618.381 388.065 617.077 402.003C614.064 432.975 591.348 462.715 557.928 460.615C541.286 517.186 497.61 551.279 442.203 566.85C442.301 585.568 442.76 607.378 447.144 625.882C448.938 631.809 453.334 636.585 455.269 642.433C456.69 646.737 452.893 650.705 448.803 651.085C446.483 651.299 442.576 649.799 441.168 647.999C427.06 629.991 426.981 592.646 426.975 570.909C389.055 579.512 349.686 579.525 311.758 570.946C311.002 593.871 310.973 627.474 298.321 646.823C294.077 653.319 276.207 653.093 287.067 634.197C296.077 618.516 295.881 585.623 296.474 566.868C282.283 563.494 263.7 555.443 250.957 548.126C214.918 527.436 191.525 501.229 180.55 460.939C113.944 462.146 97.9508 356.849 161.492 345.588Z" fill="#2585F5"/>
<path d="M343.099 49.9556C358.942 48.6299 385.785 50.2672 399.917 58.3937C405.856 62.2696 401.546 72.7413 395.404 71.6636C383.073 69.5003 374.182 66.2527 361.366 65.862C305.745 64.1647 251.602 86.7575 210.263 123.578C145.07 181.645 115.503 270.191 110.691 355.466C108.609 391.753 109.49 427.875 101.878 463.701C98.4905 479.443 93.9606 494.922 88.3244 510.009C75.7305 544.243 64.9233 565.099 62.6321 602.896C60.32 641.03 89.2894 667.69 87.3704 701.073L87.3141 701.955C86.894 709.051 85.1281 716.013 82.1101 722.449C78.462 730.292 69.1592 743.444 59.4603 737.67C50.6131 732.405 61.3309 724.824 64.1861 721.169C82.7297 697.436 62.9811 669.545 54.5227 646.627C50.6786 636.205 48.3519 625.288 47.6147 614.205C44.4184 570.377 60.222 540.766 74.4544 501.603C79.3602 487.948 83.4039 474.006 86.5609 459.843C93.9821 425.75 93.7592 388.004 95.1369 353.078C100.746 210.831 187.362 60.8436 343.099 49.9556Z" fill="#2585F5"/>
<path d="M435.816 69.9921C499.729 67.6598 562.282 127.557 594.373 178.242C623.672 224.529 644.545 280.332 643.1 335.783C642.42 361.976 639.31 387.691 644.361 413.712C648.85 438.345 656.834 455.802 667.182 478.17C686.384 519.096 696.566 562.815 687.743 607.96C681.375 640.498 664.543 675.92 687.633 706.223C691.056 710.705 696.505 714.397 699.524 718.824C702.487 723.183 697.975 727.782 694.362 729.9C688.619 729.815 686.512 728.321 682.367 724.267C661.861 704.386 656.24 673.421 662.363 646.26C665.804 630.989 670.243 616.734 672.913 601.163C679.385 563.409 671.229 526.285 655.873 491.732C646.082 469.689 635.195 447.995 630.419 424.079C623.286 391.833 626.629 368.701 627.511 336.897C629.06 280.834 605.015 219.701 572.654 174.607C547.66 139.782 508.521 103.1 466.824 90.279C456.708 86.3755 446.177 86.6516 435.841 85.0805C428.034 83.8932 428.652 74.0137 435.816 69.9921Z" fill="#2585F5"/>
<path d="M420.846 148.307C424.47 148.134 427.697 147.858 429.712 151.613C432.626 157.047 431.457 164.622 432.277 170.619C434.91 189.912 441.927 207.386 452.024 223.962C466.193 246.973 485.584 266.321 508.632 280.439C525.868 290.972 543.643 299.464 556.557 315.737C562.196 322.842 567.272 328.999 558.228 335.641C549.062 336.373 546.503 328.644 540.931 322.228C530.766 310.526 516.31 303.741 503.201 295.841C458.961 269.267 423.589 223.954 417.178 171.843C416.094 163.054 413.014 154.282 420.846 148.307Z" fill="#2585F5"/>
<path d="M271.403 660.116C278.635 659.951 279.253 662.204 284.06 667.378C322.302 708.556 394.063 716.785 440.084 684.094C442.937 682.086 445.656 679.906 448.234 677.555C451.032 674.971 457.865 666.325 460.853 666.68C472.616 668.082 471.936 675.62 466.082 682.03C438.866 711.139 399.831 723.073 360.662 719.718C330.682 717.409 302.293 705.292 279.888 685.239C272.692 678.724 258.942 668.456 271.403 660.116Z" fill="#2585F5"/>
<path d="M484.421 644.864C491.873 644.619 502.986 649.137 510.224 651.654C556.195 667.66 594.875 702.42 614.413 747.174C616.893 752.862 621.008 759.934 619.863 766.21C619.391 768.782 616.948 770.349 614.922 771.623C611.633 771.684 607.647 771.409 606.282 768.071C596.877 745.055 587.674 726.906 569.862 708.415C557.732 695.801 543.68 685.19 528.225 676.973C513.946 669.392 500.543 664.763 485.272 659.914C477 657.287 476.234 649.94 484.421 644.864Z" fill="#2585F5"/>
<path d="M355.276 139.086C366.24 140.907 364.434 147.226 361.728 155.745C345.604 206.51 313.158 271.638 262.721 296.155C262.015 296.114 259.948 296.028 259.334 295.737C242.357 287.69 265.792 276.354 269.738 273.435C278.087 267.141 285.782 260.024 292.706 252.19C313.055 229.424 328.656 200.513 339.618 172.101C343.087 163.109 345.859 153.605 349.141 144.53C350.37 141.13 352.083 140.485 355.276 139.086Z" fill="#2585F5"/>
<path d="M243.375 643.719C252.534 643.688 258.656 655.677 243.497 659.902C195.822 673.201 155.444 710.515 137.028 756.285C134.308 763.044 133.531 768.99 127.496 771.745C112.76 771.647 119.2 757.84 122.543 749.745C125.707 742.079 129.292 734.903 133.479 727.751C157.328 686.108 196.938 655.818 243.375 643.719Z" fill="#2585F5"/>
<path d="M622.98 549.846C630.921 550.293 631.815 554.426 633.548 561.504C634.54 565.54 635.661 569.599 636.481 573.702C641.055 596.663 639.769 620.408 632.746 642.739C626.739 662.118 616.165 684.449 626.053 704.251C629.776 711.721 638.483 716.993 626.611 723.575C618.638 723.3 616.073 718.812 612.601 712.291C598.641 686.053 611.046 662.069 618.204 636.824C621.443 625.76 623.225 614.322 623.5 602.798C623.69 592.855 622.643 582.923 620.39 573.242C618.051 563.341 612.307 555.43 622.98 549.846Z" fill="#2585F5"/>
<path d="M113.89 576.298C129.582 577.173 119.558 593.209 118.683 602.461C117.515 609.184 117.638 615.344 117.718 622.104C117.977 648.525 135.647 671.223 133.533 697.724C132.725 707.857 129.409 724.91 118.876 728.957C102.832 726.282 114.182 713.742 116.534 705.537C121.288 688.956 114.007 671.413 108.671 655.793C100.554 632.042 99.7595 607.078 107.467 583.07C108.648 579.39 110.545 577.89 113.89 576.298Z" fill="#2585F5"/>
<path d="M384.077 148.338C388.283 147.928 394.988 149.562 394.247 154.997C389.477 189.841 381.842 227.289 392.367 261.813C394.927 270.189 404.693 275.409 393.298 283.192C389.263 283.821 385.399 282.306 383.323 278.626C367.048 249.776 371.273 211.534 375.094 179.794C376.19 170.68 377.611 160.107 380.752 151.549C381.156 150.548 383.189 148.999 384.077 148.338Z" fill="#2585F5"/>
<path d="M241.309 222.959C244.668 222.828 247.267 222.483 249.595 225.397C251.273 227.497 251.44 232.053 250.518 234.423C236.621 270.091 210.485 310.223 176.988 329.558C165.024 330.331 162.908 320.258 172.171 314.12C203.782 293.174 222.648 260.083 237.74 226.327C238.24 225.21 240.305 223.686 241.309 222.959Z" fill="#2585F5"/>
<path d="M327.164 462.899C331.886 463.199 333.69 465.82 338.187 466.744C349.502 469.065 361.581 469.732 373.141 469.708C379.784 469.696 387.634 468.716 394.302 467.724C399.127 467.148 406.42 463.964 411.03 463.689C414.9 463.462 417.974 470.363 416.217 473.92C414.576 477.233 414.655 477.141 411.637 479.003C388.847 485.003 365.052 486.136 341.797 482.321C334.85 481.195 318.997 479.707 321.105 469.175C321.762 465.893 324.472 464.375 327.164 462.899Z" fill="#2585F5"/>
</g>
<defs>
<clipPath id="clip0_689_393">
<rect width="746" height="746" fill="white"/>
</clipPath>
</defs>
</svg>
