<svg width="746" height="746" viewBox="0 0 746 746" fill="none" xmlns="http://www.w3.org/2000/svg">
<path d="M373.222 603.676C355.299 603.676 339.955 597.294 327.192 584.531C314.428 571.767 308.046 556.423 308.046 538.5H438.398C438.398 556.423 432.016 571.767 419.253 584.531C406.489 597.294 391.146 603.676 373.222 603.676ZM161.521 321.407C154.856 321.407 149.269 318.859 144.761 313.763C140.252 308.666 138.39 302.785 139.174 296.121C142.311 266.718 150.543 239.373 163.873 214.086C177.202 188.8 194.256 166.748 215.034 147.93C220.131 143.617 225.913 141.657 232.382 142.049C238.85 142.441 244.045 145.381 247.965 150.87C251.886 156.358 253.454 162.239 252.67 168.512C251.886 174.784 248.945 180.273 243.849 184.977C228.559 199.483 216.014 216.341 206.213 235.551C196.412 254.761 189.943 275.539 186.807 297.885C186.023 304.55 183.279 310.136 178.574 314.645C173.87 319.153 168.185 321.407 161.521 321.407ZM584.924 321.407C578.259 321.407 572.575 319.153 567.87 314.645C563.166 310.136 560.421 304.55 559.637 297.885C556.501 275.539 550.032 254.761 540.231 235.551C530.43 216.341 517.885 199.483 502.595 184.977C497.499 180.273 494.559 174.784 493.775 168.512C492.99 162.239 494.559 156.358 498.479 150.87C502.399 145.381 507.594 142.441 514.063 142.049C520.531 141.657 526.314 143.617 531.41 147.93C552.188 166.748 569.242 188.8 582.572 214.086C595.901 239.373 604.134 266.718 607.27 296.121C608.054 302.785 606.192 308.666 601.684 313.763C597.175 318.859 591.588 321.407 584.924 321.407Z" fill="#E48414"/>
<path d="M208.522 541.881C201.858 541.881 196.271 539.627 191.763 535.118C187.254 530.61 185 525.023 185 518.358C185 511.694 187.254 506.107 191.763 501.599C196.271 497.09 201.858 494.836 208.522 494.836H232.045V330.179C232.045 297.64 241.846 268.727 261.448 243.44C281.05 218.154 306.532 201.59 337.896 193.749V177.284C337.896 167.483 341.326 159.152 348.187 152.291C355.047 145.43 363.378 142 373.179 142C382.98 142 391.311 145.43 398.172 152.291C405.032 159.152 408.463 167.483 408.463 177.284V193.749C439.826 201.59 465.309 218.154 484.911 243.44C504.513 268.727 514.314 297.64 514.314 330.179V494.836H537.836C544.501 494.836 550.087 497.09 554.596 501.599C559.104 506.107 561.358 511.694 561.358 518.358C561.358 525.023 559.104 530.61 554.596 535.118C550.087 539.627 544.501 541.881 537.836 541.881H208.522Z" fill="#FFCD50"/>
</svg>
