<svg width="746" height="746" viewBox="0 0 746 746" fill="none" xmlns="http://www.w3.org/2000/svg">
<rect width="746" height="746" fill="#89DBFF"/>
<mask id="mask0_689_393" style="mask-type:alpha" maskUnits="userSpaceOnUse" x="140" y="109" width="486" height="486">
<rect x="140" y="109" width="486" height="486" fill="#D9D9D9"/>
</mask>
<g mask="url(#mask0_689_393)">
<path d="M304.278 430.722C299.384 425.828 296.938 419.837 296.938 412.75C296.938 405.663 299.384 399.672 304.278 394.778C309.172 389.884 315.163 387.438 322.25 387.438C329.337 387.438 335.328 389.884 340.222 394.778C345.116 399.672 347.562 405.663 347.562 412.75C347.562 419.837 345.116 425.828 340.222 430.722C335.328 435.616 329.337 438.062 322.25 438.062C315.163 438.062 309.172 435.616 304.278 430.722ZM425.778 430.722C420.884 425.828 418.438 419.837 418.438 412.75C418.438 405.663 420.884 399.672 425.778 394.778C430.672 389.884 436.663 387.438 443.75 387.438C450.837 387.438 456.828 389.884 461.722 394.778C466.616 399.672 469.062 405.663 469.062 412.75C469.062 419.837 466.616 425.828 461.722 430.722C456.828 435.616 450.837 438.062 443.75 438.062C436.663 438.062 430.672 435.616 425.778 430.722ZM383 554.5C428.225 554.5 466.531 538.806 497.919 507.419C529.306 476.031 545 437.725 545 392.5C545 384.4 544.494 376.553 543.481 368.959C542.469 361.366 540.612 354.025 537.912 346.938C530.825 348.625 523.738 349.891 516.65 350.734C509.563 351.578 502.137 352 494.375 352C463.662 352 434.637 345.419 407.3 332.256C379.962 319.094 356.675 300.7 337.438 277.075C326.637 303.4 311.197 326.266 291.116 345.672C271.034 365.078 247.663 379.675 221 389.463V392.5C221 437.725 236.694 476.031 268.081 507.419C299.469 538.806 337.775 554.5 383 554.5ZM304.025 579.053C279.388 568.422 257.956 553.994 239.731 535.769C221.506 517.544 207.078 496.113 196.447 471.475C185.816 446.838 180.5 420.512 180.5 392.5C180.5 382.712 181.175 373.009 182.525 363.391C183.875 353.772 185.9 344.575 188.6 335.8C174.088 327.025 162.359 315.128 153.416 300.109C144.472 285.091 140 268.469 140 250.244C140 222.231 149.788 198.438 169.363 178.863C188.938 159.288 212.731 149.5 240.744 149.5C258.631 149.5 275.084 153.803 290.103 162.409C305.122 171.016 317.187 182.913 326.3 198.1C335.075 195.4 344.272 193.375 353.891 192.025C363.509 190.675 373.212 190 383 190C411.012 190 437.338 195.316 461.975 205.947C486.613 216.578 508.044 231.006 526.269 249.231C544.494 267.456 558.922 288.888 569.553 313.525C580.184 338.163 585.5 364.488 585.5 392.5C585.5 420.512 580.184 446.838 569.553 471.475C558.922 496.113 544.494 517.544 526.269 535.769C508.044 553.994 486.613 568.422 461.975 579.053C437.338 589.684 411.012 595 383 595C354.988 595 328.663 589.684 304.025 579.053Z" fill="#2585F5"/>
</g>
</svg>
