<svg width="746" height="746" viewBox="0 0 746 746" fill="none" xmlns="http://www.w3.org/2000/svg">
<g clip-path="url(#clip0_689_387)">
<rect width="1254" height="1254" transform="translate(-254 -254)" fill="#89DBFF"/>
<path d="M260.437 493.103C268.454 492.65 285.695 499.998 295.842 502.202C310.527 505.245 325.446 507.021 340.434 507.505C369.449 508.656 400.738 506.874 428.665 498.559C440.905 494.916 461.698 485.309 461.992 507.946C462.286 530.43 448.044 557.034 433.294 573.377C403.964 603.851 364.875 614.144 323.951 601.794C297.09 593.693 273.791 571.362 261.651 546.429C255.753 534.312 247.892 515.569 251.902 501.645C253.501 496.759 256.08 495.142 260.437 493.103ZM447.401 508.221C438.908 511.21 429.203 514.651 420.325 516.543C379.986 525.127 333.652 525.469 293.238 517.216C284.279 515.385 273.868 511.724 265.395 508.766C269.277 534.52 282.293 558.669 303.472 574.221C323.043 588.525 347.553 594.348 371.469 590.362C394.7 586.627 411.238 575.703 426.27 558.142C438.792 541.867 444.431 528.323 447.401 508.221Z" fill="#2585F5"/>
<path d="M416.988 -45.558C430.226 -45.8654 442.386 -44.8557 454.908 -40.2573C491.756 -26.7241 521.955 2.37199 509.385 44.0516C543.313 67.6039 551.989 118.628 511.607 140.595C527.889 148.513 542.786 159.601 557.922 167.972C593.736 187.785 619.967 210.546 638.403 247.659C643.541 258.002 662.896 291.546 656.558 301.793C655.548 303.451 653.907 304.631 652.015 305.064C650.215 305.465 647.245 304.944 645.849 303.832C642.108 300.852 641.324 290.358 639.506 285.489C638.171 281.915 637.558 280.015 636.009 276.666C626.855 257.575 615.889 236.681 602.057 220.515C586.737 202.605 561.896 188.927 542.094 176.412C525.88 166.165 508.019 154.928 490.262 147.959C481.911 144.684 465.17 146.987 456.482 140.836C452.796 138.773 452.716 132.321 455.361 129.332C460.174 123.889 470.369 130.079 476.498 130.78C480.778 131.269 483.497 131.403 487.691 131.207C508.332 130.243 525.739 115.088 523.088 93.159C521.417 77.8992 514.332 67.8065 502.864 58.1456C494.561 71.2367 486.907 78.2849 471.765 86.9043C462.733 92.5204 420.833 104.1 423.399 84.1661C424.097 78.7625 444.664 79.3105 449.403 78.49C467.16 74.6784 479.314 65.5061 489.742 50.9045C487.501 50.152 485.248 49.4325 482.982 48.7449C464.527 43.2495 439.643 44.6375 423.876 56.7857C419.125 60.4491 414.086 71.7743 406.322 69.3814C393.041 58.543 419.229 40.1236 428.714 36.519C450.977 28.0551 473.853 28.0833 495.816 36.9017C497.659 29.9373 497.702 22.6197 495.951 15.6327C492.173 0.676519 480.233 -9.55999 467.515 -17.2677C445.895 -30.3685 421.727 -33.2207 397.364 -27.1644C370.888 -20.5827 356.176 -4.99709 346.988 20.1313C344.369 27.2965 342.344 34.7488 339.399 41.783C336.412 49.2874 330.489 54.8686 326.537 61.7319C316.274 79.5536 325.281 105.38 344.023 113.407C347.82 115.034 351.915 115.516 355.601 117.638C361.966 121.304 360.668 131.018 352.948 131.598C342.871 131.865 332.844 125.65 325.188 119.502C318.222 119.467 313.72 118.914 307.06 116.438C290.872 110.492 277.722 98.3361 270.524 82.6635C264.961 70.4089 264.407 55.6774 269.004 42.3941C271.738 34.4953 281.516 21.8298 289.117 34.8027C291.387 40.0385 283.807 44.8763 282.499 48.8502C274.353 73.5904 292.396 92.8737 312.573 102.318C305.563 84.7858 304.625 63.807 317.361 48.0713C326.511 36.7651 327.2 32.01 331.503 18.4817C344.916 -23.684 373.949 -42.6177 416.988 -45.558Z" fill="#2585F5"/>
<path d="M578.03 454.424C584.264 454.522 586.878 458.025 588.672 463.762C597.624 492.393 599.241 520.339 586.388 547.887C617.151 563.868 633.162 605.541 618.326 637.461C615.571 643.394 610.201 653.595 602.259 648.868C596.185 645.512 600.735 637.938 603.025 633.334C617.046 605.162 604.458 578.018 579.071 560.751C557.5 598.047 507.707 620.047 469.506 634.705C457.547 639.291 445.748 645.733 433.557 649.566C433.055 660.067 432.461 673.623 434.641 684.094C436.19 688.625 439.472 692.966 440.611 697.595C441.982 704.085 432.192 709.835 427.875 704.434C417.649 691.662 418.207 670.194 418.09 655.193C380.985 667.053 336.517 663.343 299.118 653.987C299.415 669.178 300.061 689.243 291.716 702.561C289.211 706.559 282.993 706.92 279.665 703.54C278.197 702.059 277.473 699.995 277.695 697.92C278.057 694.356 282.257 686.91 282.83 683.243C284.455 672.84 284.188 660.685 284.313 650.105C237.367 635.128 183.848 606.521 155.268 565.276C148.816 571.699 146.148 576.01 141.989 584C134.657 599.73 131.286 621.149 142.378 636.175C144.958 639.671 149.001 642.42 151.391 646.21C155.592 652.878 147.88 658.261 141.807 655.989C135.25 653.423 129.008 645.433 125.974 639.187C115.952 618.553 119.568 592.217 130.677 572.734C135.544 564.192 139.556 557.72 148.437 553.146C137.852 530.993 138.096 518.202 138.539 494.322C130.353 500.286 129.853 496.006 121.728 493.575C108.404 489.601 106.223 475.53 122.375 477.423C128.269 478.114 136.126 482.952 139.607 488.064C140.615 481.139 143.356 462.568 148.458 458.288C149.934 457.039 151.876 456.488 153.788 456.763C164.72 458.435 157.932 471.716 156.728 477.196C151.143 502.576 150.925 532.089 166.565 554.732C196.505 598.089 253.541 626.035 303.552 639.316C339.557 646.486 384.91 653.191 419.713 638.575C455.006 623.757 494.016 610.721 526.297 590.748C567.113 565.484 589.756 526.486 577.516 478.421C575.189 469.297 567.419 460.407 578.03 454.424Z" fill="#2585F5"/>
<path d="M189.333 268.939C192.422 268.882 193.877 268.96 196.422 270.968C202.215 275.54 196.052 284.232 193.468 290.146C188.663 301.145 183.122 312.186 177.491 322.88C166.628 343.507 147.751 368.328 147.238 392.263C146.997 403.48 151.687 414.061 151.997 426.834C147.658 434.879 137.901 428.034 132.025 428.144C79.7281 429.197 61.321 515.655 111.58 534.661C115.745 536.571 130.108 537.061 131.57 542.382C133.39 551.444 126.431 552.601 119.677 551.964C96.9173 549.815 81.1438 535.995 72.0516 515.722C62.2456 487.446 67.3712 456.677 87.167 434.016C74.4696 412.928 78.1 387.493 89.0688 366.246C91.9356 360.693 101.885 341.005 111.032 354.272C114.489 359.284 107.458 364.795 104.993 368.836C95.4986 384.407 89.6034 406.003 98.674 423.123L99.1002 423.913C110.045 415.58 121.03 413.718 134.495 412.898C122.162 368.555 159.224 331.572 175.18 293.69C178.231 286.448 181.839 279.015 185.237 271.937C185.527 271.334 188.609 269.398 189.333 268.939Z" fill="#2585F5"/>
<path d="M657.03 325.865C664.629 326.472 665.767 331.305 668.076 337.814C679.477 369.969 682.612 413.982 657.661 440.856C663.784 449.508 668.1 459.298 670.36 469.652C678.142 504.358 662.424 542.835 625.459 551.113C620.843 552.148 605.909 553.685 605.682 546.368C605.976 538.935 610.636 537.826 617.016 537.03C629.145 535.524 635.991 531.82 644.527 523.186C675.466 486.987 645.304 415.108 593.448 430.287C584.741 432.835 578.741 417.172 595.824 414.269C617.065 410.669 632.287 414.735 647.931 429.62C664.316 405.195 664.292 381.309 657.434 353.36C654.954 343.259 644.594 331.966 657.03 325.865Z" fill="#2585F5"/>
<path d="M292.942 121.526C293.572 121.435 293.977 121.357 294.582 121.325C296.528 121.239 298.418 121.989 299.775 123.385C304.427 128.18 301.335 134.667 295.06 136.072C256.146 144.787 217.95 162.394 188.563 189.713C175.972 201.418 165.607 216.044 154.7 229.297C146.133 240.263 135.845 250.75 128.639 262.659C119 278.442 111.571 295.074 110.821 313.78C110.429 323.566 115.795 328.372 106.974 334.302C100.647 334.854 97.2014 332.809 96.3209 326.266C90.5517 283.371 118.532 248.322 144.339 217.607C155.019 204.896 164.203 192.163 176.345 180.404C207.557 150.174 250.419 129.42 292.942 121.526Z" fill="#2585F5"/>
<path d="M259.035 713.423C260.105 713.325 264.146 712.952 264.888 713.619C303.471 748.135 361.66 763.161 412.151 751.68C429.908 747.639 444.548 727.463 455.79 717.709C458.012 715.781 472.94 720.342 460.988 733.666C433.753 763.681 413.455 772.945 371.971 771.017C330.763 769.1 289.239 755.599 258.329 727.482C253.342 722.945 254.242 717.63 259.035 713.423Z" fill="#2585F5"/>
<path d="M310.733 224.226C327.516 226.371 315.11 237.528 310.291 243.602C288.965 270.482 283.337 309.408 263.734 337.559C245.647 363.044 218.294 380.427 187.541 385.981C182.312 385.613 177.478 383.127 179.391 376.649C181.031 371.096 188.22 370.569 193.112 369.149C197.73 367.832 202.254 366.216 206.655 364.293C251.884 344.473 261.134 314.051 277.571 271.54C283.531 256.125 294.893 231.108 310.733 224.226Z" fill="#2585F5"/>
<path d="M426.216 232.73C439.68 232.174 435.167 243.628 437.219 252.651C446.746 294.56 479.413 329 510.567 356.837C515.655 360.803 521.19 365.138 526.75 368.396C533.987 372.639 539.584 378.566 530.589 385.381C524.576 385.956 518.49 382.191 513.695 378.474C473.492 347.326 430.655 303.499 422.223 251.42C420.95 243.563 419.321 237.678 426.216 232.73Z" fill="#2585F5"/>
<path d="M348.032 222.45C359.444 220.8 363.399 231.365 353.827 237.836C351.603 239.34 348.559 244.368 347.134 246.746C333.2 269.995 324.229 296.4 318.414 322.776C316.137 333.214 314.529 351.46 320.216 361.127C323.918 367.422 331.66 371.39 322.41 378.688C316.017 379.852 313.391 377.654 309.653 372.62C300.636 360.478 300.41 339.416 302.727 325.156C307.125 298.083 326.482 238.674 348.032 222.45Z" fill="#2585F5"/>
<path d="M484.458 695.66C492.895 695.495 504.737 699.506 512.783 702.04C546.613 712.688 571.509 737.75 593.362 764.563C598.108 770.386 601.041 775.499 593.644 780.862C582.831 781.469 580.792 773.16 574.197 765.659C557.181 746.298 538.769 728.002 513.983 719.007C507.04 716.485 500.09 714.317 492.938 712.456C489.938 711.654 484.378 710.478 481.715 708.702C477.178 703.773 480.264 699.059 484.458 695.66Z" fill="#2585F5"/>
<path d="M390.61 237.051C406.873 236.818 398.043 250.844 395.178 259.982C385.577 290.615 375.853 324.933 382.215 357.113C383.844 365.352 395.025 372.908 383.023 379.637C378.694 379.717 375.253 378.517 373.092 374.408C361.911 353.167 364.409 321.856 369.093 299.063C373.184 279.167 378.547 258.394 386.967 240.033C387.377 239.184 389.771 237.597 390.61 237.051Z" fill="#2585F5"/>
<path d="M234.104 695.164C244.257 695.77 246.028 707.808 233.376 711.102C212.345 716.582 198.233 726.177 181.83 739.054C171.587 747.1 146.556 781.628 139.563 784.028C118.712 782.779 143.733 758.042 148.44 752.151C162.706 734.284 179.522 718.101 200.292 708.059C210.962 702.904 222.573 697.87 234.104 695.164Z" fill="#2585F5"/>
<path d="M551.223 350.933C552.172 350.906 553.96 350.863 554.848 351.141C561.712 354.463 570.634 367.685 574.148 374.004C578.979 382.674 592.701 406.395 580.406 413.045C567.205 412.714 571.662 403.536 567.682 394.131C562.778 382.558 555.142 372.522 547.225 362.885C543.129 357.901 546.962 353.742 551.223 350.933Z" fill="#2585F5"/>
<path d="M378.443 426.27C388.596 425.566 389.594 432.816 389.373 441.431C389.214 447.744 389.967 453.243 384.383 457.223C371.537 459.004 373.753 444.78 374.041 436.374C374.2 431.628 374.88 429.289 378.443 426.27Z" fill="#2585F5"/>
<path d="M322.711 426.307C336.558 425.652 332.958 441.382 332.417 450.689C332.226 453.984 330.308 455.508 327.78 457.241C315.15 458.276 317.407 444.119 317.89 435.651C318.149 431.108 319.229 429.044 322.711 426.307Z" fill="#2585F5"/>
<path d="M618.21 476.479C619.134 476.418 622.551 476.339 623.206 476.773C639.163 487.427 616.287 493.655 609.521 496.722C608.333 496.906 605.511 497.194 604.537 496.477C590.583 486.246 611.897 479.18 618.21 476.479Z" fill="#2585F5"/>
</g>
<defs>
<clipPath id="clip0_689_387">
<rect width="746" height="746" fill="white"/>
</clipPath>
</defs>
</svg>
