<svg width="746" height="746" viewBox="0 0 746 746" fill="none" xmlns="http://www.w3.org/2000/svg">
<g clip-path="url(#clip0_689_393)">
<rect width="1254" height="1254" transform="translate(-254 -194)" fill="#F7F8FA"/>
<path d="M297.012 359.173C300.443 358.93 303.03 359.621 304.911 361.084C306.784 362.541 307.818 364.653 308.369 366.97C308.919 369.282 309.009 371.882 308.933 374.428C308.857 376.967 308.609 379.554 308.46 381.774C308.308 384.026 307.915 385.675 307.044 387.112C306.185 388.528 304.917 389.645 303.231 390.93L303.015 391.095L302.744 391.127C299.319 391.54 296.718 390.909 294.818 389.43C292.937 387.965 291.897 385.786 291.338 383.411C290.232 378.714 290.906 372.732 291.238 368.498C291.417 366.219 291.792 364.585 292.65 363.167C293.498 361.769 294.762 360.678 296.479 359.375L296.715 359.195L297.012 359.173Z" fill="#4E5968" stroke="#4E5968" stroke-width="2"/>
<mask id="path-2-outside-1_689_393" maskUnits="userSpaceOnUse" x="186.438" y="307.718" width="363" height="131" fill="black">
<rect fill="white" x="186.438" y="307.718" width="363" height="131"/>
<path d="M385.283 354.271C396.011 311.494 453.463 304.138 489.105 315.495C505.686 320.779 518.416 329.929 526.352 345.571C531.177 345.31 554.046 342.292 545.223 357.184C543 360.935 535.664 361.08 531.458 361.321C532.34 385.781 527.117 406.687 506.17 421.93C487.097 435.804 463.817 438.443 440.953 434.702C408.036 427.648 384.573 404.385 383.385 369.888C371.084 366.219 365.812 366.561 353.323 369.745C352.119 388.902 346.379 403.781 331.878 416.873C291.989 452.888 212.159 438.799 205.379 379.17C204.668 372.915 205.007 367.185 205.331 360.953C200.064 360.938 195.489 361.599 191.519 357.6C188.586 354.731 188.828 350.298 191.771 347.542C196.071 343.514 204.661 345.262 210.34 345.517C212.525 341.059 215.321 336.927 218.646 333.241C233.183 317.135 254.502 311.833 275.382 310.805C309.401 309.891 339.443 319.955 351.407 354.104C364.122 350.883 372.823 350.711 385.283 354.271ZM516.107 364.219C513.236 333.748 474.361 323.364 449.146 326.704C421.636 329.256 395.215 342.331 398.729 374.358C400.285 387.653 407.167 399.748 417.803 407.876C431.182 418.301 450.426 422.383 467.05 420.276C497.836 416.41 519.163 396.617 516.107 364.219ZM320.403 336.613C307.451 328.347 286.237 324.544 271.031 326.702C241.364 329.477 216.814 343.816 220.445 377.179C221.84 389.364 227.983 400.508 237.54 408.194C251.608 419.382 270.911 422.193 288.324 420.038L289.013 419.952C305.639 416.87 319.943 410.485 329.781 396.055C342.882 376.838 341.017 349.769 320.403 336.613Z"/>
</mask>
<path d="M385.283 354.271C396.011 311.494 453.463 304.138 489.105 315.495C505.686 320.779 518.416 329.929 526.352 345.571C531.177 345.31 554.046 342.292 545.223 357.184C543 360.935 535.664 361.08 531.458 361.321C532.34 385.781 527.117 406.687 506.17 421.93C487.097 435.804 463.817 438.443 440.953 434.702C408.036 427.648 384.573 404.385 383.385 369.888C371.084 366.219 365.812 366.561 353.323 369.745C352.119 388.902 346.379 403.781 331.878 416.873C291.989 452.888 212.159 438.799 205.379 379.17C204.668 372.915 205.007 367.185 205.331 360.953C200.064 360.938 195.489 361.599 191.519 357.6C188.586 354.731 188.828 350.298 191.771 347.542C196.071 343.514 204.661 345.262 210.34 345.517C212.525 341.059 215.321 336.927 218.646 333.241C233.183 317.135 254.502 311.833 275.382 310.805C309.401 309.891 339.443 319.955 351.407 354.104C364.122 350.883 372.823 350.711 385.283 354.271ZM516.107 364.219C513.236 333.748 474.361 323.364 449.146 326.704C421.636 329.256 395.215 342.331 398.729 374.358C400.285 387.653 407.167 399.748 417.803 407.876C431.182 418.301 450.426 422.383 467.05 420.276C497.836 416.41 519.163 396.617 516.107 364.219ZM320.403 336.613C307.451 328.347 286.237 324.544 271.031 326.702C241.364 329.477 216.814 343.816 220.445 377.179C221.84 389.364 227.983 400.508 237.54 408.194C251.608 419.382 270.911 422.193 288.324 420.038L289.013 419.952C305.639 416.87 319.943 410.485 329.781 396.055C342.882 376.838 341.017 349.769 320.403 336.613Z" fill="#4E5968"/>
<path d="M385.283 354.271L384.734 356.194L386.721 356.761L387.223 354.757L385.283 354.271ZM489.105 315.495L489.713 313.59L489.713 313.59L489.105 315.495ZM526.352 345.571L524.568 346.476L525.158 347.639L526.46 347.568L526.352 345.571ZM545.223 357.184L546.943 358.203L546.943 358.203L545.223 357.184ZM531.458 361.321L531.344 359.325L529.389 359.437L529.459 361.393L531.458 361.321ZM506.17 421.93L507.346 423.547L507.347 423.547L506.17 421.93ZM440.953 434.702L440.534 436.658L440.582 436.668L440.63 436.676L440.953 434.702ZM383.385 369.888L385.384 369.819L385.334 368.382L383.956 367.971L383.385 369.888ZM353.323 369.745L352.829 367.807L351.418 368.167L351.327 369.62L353.323 369.745ZM331.878 416.873L330.538 415.389L330.538 415.389L331.878 416.873ZM205.379 379.17L203.392 379.396L203.392 379.396L205.379 379.17ZM205.331 360.953L207.328 361.057L207.437 358.959L205.337 358.953L205.331 360.953ZM191.519 357.6L192.938 356.19L192.927 356.18L192.917 356.17L191.519 357.6ZM191.771 347.542L193.138 349.002L193.138 349.002L191.771 347.542ZM210.34 345.517L210.25 347.515L211.559 347.573L212.136 346.397L210.34 345.517ZM218.646 333.241L217.162 331.901L217.161 331.902L218.646 333.241ZM275.382 310.805L275.328 308.805L275.306 308.806L275.283 308.807L275.382 310.805ZM351.407 354.104L349.52 354.766L350.125 356.493L351.898 356.043L351.407 354.104ZM516.107 364.219L514.116 364.406V364.407L516.107 364.219ZM449.146 326.704L449.331 328.696L449.37 328.692L449.409 328.687L449.146 326.704ZM398.729 374.358L396.741 374.577L396.742 374.584L396.743 374.591L398.729 374.358ZM417.803 407.876L419.032 406.298L419.025 406.293L419.017 406.287L417.803 407.876ZM467.05 420.276L466.801 418.292L466.798 418.292L467.05 420.276ZM320.403 336.613L321.479 334.927L321.479 334.927L320.403 336.613ZM271.031 326.702L271.218 328.693L271.265 328.689L271.312 328.682L271.031 326.702ZM220.445 377.179L218.457 377.395L218.458 377.406L220.445 377.179ZM237.54 408.194L236.287 409.753L236.295 409.76L237.54 408.194ZM288.324 420.038L288.57 422.023L288.572 422.023L288.324 420.038ZM289.013 419.952L289.26 421.937L289.319 421.929L289.377 421.919L289.013 419.952ZM329.781 396.055L331.434 397.181L331.434 397.181L329.781 396.055ZM385.283 354.271L387.223 354.757C392.356 334.29 408.667 322.15 428.401 316.506C448.161 310.853 471.032 311.835 488.498 317.401L489.105 315.495L489.713 313.59C471.537 307.798 447.86 306.779 427.301 312.66C406.717 318.548 388.938 331.475 383.343 353.784L385.283 354.271ZM489.105 315.495L488.498 317.401C504.683 322.558 516.924 331.408 524.568 346.476L526.352 345.571L528.135 344.666C519.908 328.45 506.69 319 489.713 313.59L489.105 315.495ZM526.352 345.571L526.46 347.568C529.106 347.425 535.617 346.648 540.502 347.654C542.983 348.165 544.382 349.015 544.916 350.003C545.386 350.871 545.586 352.647 543.502 356.164L545.223 357.184L546.943 358.203C549.271 354.275 549.921 350.844 548.434 348.098C547.011 345.471 544.045 344.3 541.309 343.736C535.758 342.593 528.423 343.456 526.243 343.574L526.352 345.571ZM545.223 357.184L543.502 356.164C542.859 357.249 541.253 358.088 538.686 358.609C536.226 359.108 533.523 359.2 531.344 359.325L531.458 361.321L531.573 363.318C533.599 363.202 536.667 363.1 539.482 362.529C542.191 361.979 545.363 360.869 546.943 358.203L545.223 357.184ZM531.458 361.321L529.459 361.393C530.328 385.499 525.192 405.614 504.993 420.313L506.17 421.93L507.347 423.547C529.042 407.76 534.351 386.063 533.457 361.249L531.458 361.321ZM506.17 421.93L504.993 420.312C486.484 433.777 463.798 436.414 441.276 432.728L440.953 434.702L440.63 436.676C463.835 440.473 487.709 437.832 507.346 423.547L506.17 421.93ZM440.953 434.702L441.372 432.747C409.193 425.851 386.535 403.246 385.384 369.819L383.385 369.888L381.386 369.957C382.611 405.523 406.879 429.446 440.534 436.658L440.953 434.702ZM383.385 369.888L383.956 367.971C377.719 366.111 373.111 365.22 368.413 365.247C363.737 365.273 359.097 366.209 352.829 367.807L353.323 369.745L353.817 371.683C360.037 370.097 364.278 369.27 368.436 369.247C372.571 369.223 376.749 369.996 382.813 371.804L383.385 369.888ZM353.323 369.745L351.327 369.62C350.149 388.365 344.577 402.714 330.538 415.389L331.878 416.873L333.218 418.358C348.181 404.849 354.09 389.44 355.319 369.871L353.323 369.745ZM331.878 416.873L330.538 415.389C311.163 432.882 281.948 438.286 256.7 431.948C231.514 425.626 210.64 407.74 207.366 378.944L205.379 379.17L203.392 379.396C206.898 410.229 229.33 429.202 255.726 435.828C282.06 442.438 312.704 436.879 333.218 418.358L331.878 416.873ZM205.379 379.17L207.366 378.944C206.677 372.883 207.003 367.323 207.328 361.057L205.331 360.953L203.334 360.849C203.012 367.047 202.659 372.947 203.392 379.396L205.379 379.17ZM205.331 360.953L205.337 358.953C199.668 358.937 196.183 359.459 192.938 356.19L191.519 357.6L190.099 359.009C194.795 363.738 200.46 362.94 205.325 362.953L205.331 360.953ZM191.519 357.6L192.917 356.17C190.862 354.16 190.96 351.041 193.138 349.002L191.771 347.542L190.403 346.082C186.696 349.555 186.309 355.302 190.12 359.029L191.519 357.6ZM191.771 347.542L193.138 349.002C194.709 347.53 197.263 346.957 200.559 346.923C202.16 346.907 203.825 347.017 205.484 347.152C207.107 347.285 208.782 347.449 210.25 347.515L210.34 345.517L210.429 343.519C209.059 343.457 207.53 343.307 205.811 343.166C204.127 343.028 202.311 342.905 200.518 342.923C197.023 342.959 193.132 343.526 190.403 346.082L191.771 347.542ZM210.34 345.517L212.136 346.397C214.239 342.106 216.931 338.129 220.131 334.581L218.646 333.241L217.161 331.902C213.712 335.725 210.811 340.012 208.544 344.636L210.34 345.517ZM218.646 333.241L220.131 334.581C234.14 319.06 254.804 313.821 275.48 312.802L275.382 310.805L275.283 308.807C254.2 309.846 232.227 315.21 217.162 331.901L218.646 333.241ZM275.382 310.805L275.436 312.804C292.26 312.352 307.91 314.624 320.766 321.092C333.561 327.529 343.709 338.179 349.52 354.766L351.407 354.104L353.295 353.443C347.142 335.88 336.287 324.423 322.564 317.519C308.904 310.647 292.523 308.344 275.328 308.805L275.382 310.805ZM351.407 354.104L351.898 356.043C364.313 352.898 372.652 352.742 384.734 356.194L385.283 354.271L385.833 352.347C372.994 348.679 363.931 348.868 350.916 352.166L351.407 354.104ZM516.107 364.219L518.099 364.031C516.572 347.836 505.453 337.126 491.83 330.96C478.231 324.806 461.828 323.007 448.884 324.721L449.146 326.704L449.409 328.687C461.68 327.061 477.322 328.785 490.181 334.605C503.017 340.414 512.771 350.131 514.116 364.406L516.107 364.219ZM449.146 326.704L448.962 324.713C435.006 326.007 421.09 329.984 411.063 337.909C400.917 345.927 394.909 357.879 396.741 374.577L398.729 374.358L400.718 374.14C399.035 358.81 404.48 348.21 413.544 341.047C422.726 333.789 435.776 329.953 449.331 328.696L449.146 326.704ZM398.729 374.358L396.743 374.591C398.361 388.424 405.522 401.008 416.588 409.465L417.803 407.876L419.017 406.287C408.812 398.488 402.208 386.883 400.716 374.126L398.729 374.358ZM417.803 407.876L416.573 409.454C430.442 420.26 450.244 424.422 467.301 422.261L467.05 420.276L466.798 418.292C450.608 420.344 431.921 416.342 419.032 406.298L417.803 407.876ZM467.05 420.276L467.299 422.261C483.038 420.284 496.544 414.213 505.735 404.308C514.96 394.366 519.674 380.738 518.099 364.031L516.107 364.219L514.116 364.407C515.596 380.098 511.174 392.565 502.803 401.587C494.399 410.644 481.848 416.402 466.801 418.292L467.05 420.276ZM320.403 336.613L321.479 334.927C308.074 326.372 286.366 322.505 270.75 324.722L271.031 326.702L271.312 328.682C286.108 326.582 306.828 330.322 319.327 338.299L320.403 336.613ZM271.031 326.702L270.845 324.711C255.795 326.119 241.774 330.476 231.945 338.956C222.01 347.526 216.577 360.121 218.457 377.395L220.445 377.179L222.434 376.962C220.682 360.873 225.709 349.618 234.558 341.985C243.512 334.26 256.6 330.061 271.218 328.693L271.031 326.702ZM220.445 377.179L218.458 377.406C219.913 390.114 226.319 401.737 236.287 409.753L237.54 408.194L238.793 406.636C229.646 399.279 223.767 388.613 222.432 376.951L220.445 377.179ZM237.54 408.194L236.295 409.76C250.926 421.395 270.835 424.218 288.57 422.023L288.324 420.038L288.079 418.053C270.987 420.169 252.291 417.37 238.785 406.629L237.54 408.194ZM288.324 420.038L288.572 422.023L289.26 421.937L289.013 419.952L288.765 417.968L288.076 418.053L288.324 420.038ZM289.013 419.952L289.377 421.919C306.295 418.782 321.184 412.215 331.434 397.181L329.781 396.055L328.129 394.928C318.702 408.755 304.983 414.957 288.648 417.986L289.013 419.952ZM329.781 396.055L331.434 397.181C345.008 377.271 343.271 348.835 321.479 334.927L320.403 336.613L319.327 338.299C338.763 350.703 340.757 376.404 328.129 394.928L329.781 396.055Z" fill="#4E5968" mask="url(#path-2-outside-1_689_393)"/>
<path d="M434.075 359.099C437.312 358.893 439.786 359.551 441.619 360.921C443.446 362.286 444.51 364.263 445.116 366.447C446.011 369.672 445.957 373.569 445.763 377.123L445.552 380.524C445.405 382.918 445.07 384.787 444.235 386.44C443.396 388.102 442.102 389.448 440.214 390.89L439.999 391.054L439.73 391.088C437.204 391.404 435.123 391.144 433.437 390.375C431.74 389.601 430.525 388.349 429.679 386.826C428.02 383.841 427.751 379.77 427.88 375.947C427.989 372.591 427.852 369.544 428.438 366.874C429.052 364.083 430.447 361.647 433.533 359.301L433.773 359.117L434.075 359.099Z" fill="#4E5968" stroke="#4E5968" stroke-width="2"/>
<path d="M561.268 348.205C564.969 345.12 570.044 344.177 574.468 344.445L574.894 344.475L574.904 344.476C586.866 345.533 597.909 351.366 605.519 360.658H605.518C614.662 371.714 619.4 387.906 618.073 402.096L618.072 402.1C615.053 433.135 592.384 463.287 558.66 461.656C541.805 517.932 498.263 551.94 443.208 567.604C443.314 586.146 443.821 607.495 448.109 625.617C448.967 628.44 450.448 631.011 452.016 633.681C453.568 636.325 455.211 639.075 456.218 642.118L456.219 642.119C457.054 644.648 456.338 647.066 454.878 648.861C453.432 650.64 451.218 651.865 448.896 652.08H448.895C447.518 652.207 445.795 651.831 444.274 651.227C442.762 650.626 441.243 649.717 440.38 648.614C433.15 639.385 429.579 625.313 427.791 610.976C426.065 597.144 425.983 582.891 425.976 572.156C388.681 580.43 350.023 580.44 312.72 572.185C312.367 583.403 312.124 597.085 310.493 610.348C308.857 623.645 305.811 636.66 299.754 646.435L299.159 647.37C297.93 649.251 295.78 650.568 293.518 651.21C291.253 651.853 288.712 651.868 286.626 650.947C284.478 649.999 282.895 648.087 282.65 645.138C282.411 642.269 283.441 638.5 286.2 633.699C290.587 626.064 292.78 614.116 293.931 601.594C295.046 589.46 295.173 576.977 295.452 567.646C281.253 564.14 263.027 556.21 250.459 548.993C214.457 528.324 190.935 502.115 179.793 461.948C146.3 462.149 125.628 435.795 121.228 408.096C119.009 394.125 120.9 379.71 127.424 368.044C133.963 356.351 145.131 347.472 161.318 344.604L161.379 344.593L161.443 344.589C164.514 344.438 168.824 344.43 172.196 345.716C173.901 346.366 175.448 347.379 176.446 348.947C177.452 350.53 177.818 352.553 177.395 355.056C176.713 359.093 173.217 360.619 169.772 361.376C168.021 361.761 166.145 361.977 164.445 362.191C162.709 362.41 161.178 362.625 159.986 362.99C154.854 364.562 150.201 366.885 146.626 370.882C138.796 380.767 136.294 393.79 138.347 406.174C140.402 418.569 147.007 430.227 157.254 437.359L157.894 437.798C164.045 441.944 168.707 443.052 175.848 444.411C175.78 444.023 175.714 443.634 175.651 443.246L175.351 441.417C174.489 436.095 172.627 423.815 172.75 413.424C172.786 410.449 172.984 407.603 173.422 405.104C173.858 402.618 174.542 400.403 175.597 398.741C176.669 397.053 178.165 395.88 180.167 395.672C182.112 395.469 184.335 396.203 186.849 397.836C188.152 398.683 188.911 400.226 189.384 401.887C189.866 403.58 190.106 405.592 190.225 407.621C190.345 409.657 190.347 411.761 190.336 413.643C190.326 415.545 190.304 417.189 190.37 418.378C192.35 454.098 202.783 488.349 230.174 512.497L231.492 513.639L231.503 513.648L231.514 513.659C273.438 551.691 344.057 567.266 407.983 557.479C471.899 547.692 528.748 512.627 543.564 449.786C546.789 436.11 547.701 418.922 547.897 404.495C547.946 400.745 550.225 397.742 553.25 396.469C556.213 395.222 559.851 395.645 562.767 398.483L563.046 398.766L563.147 398.87L563.213 399C564.467 401.436 565.053 405.036 565.26 409.074C565.469 413.147 565.299 417.801 564.953 422.436C564.322 430.878 563.098 439.379 562.491 444.246C568.877 443.237 574.28 441.513 579.004 438.717C583.881 435.83 588.084 431.77 591.906 426.077L592.275 425.521C599.444 414.565 602.265 400.339 599.548 387.555C596.985 375.483 589.263 364.825 576.748 362.683L576.731 362.68L576.356 362.609C575.499 362.46 574.507 362.37 573.417 362.298C572.2 362.217 570.83 362.154 569.516 362.045C567.076 361.841 564.467 361.456 562.543 360.268L562.167 360.019C560.393 358.756 559.301 356.557 559.056 354.365C558.81 352.165 559.399 349.765 561.267 348.205H561.268Z" fill="#4E5968" stroke="#4E5968" stroke-width="2"/>
<path d="M343.016 48.959C351.005 48.2904 361.746 48.3703 372.27 49.6377C382.77 50.9023 393.173 53.3623 400.415 57.5264L400.439 57.541L400.464 57.5566C403.958 59.8373 404.33 63.9985 403.128 67.2344C401.94 70.4306 398.979 73.306 395.231 72.6484C389.048 71.5637 383.671 70.1957 378.36 69.0762C373.025 67.9514 367.662 67.0542 361.336 66.8613C306.004 65.1729 252.103 87.65 210.928 124.324C146 182.156 116.492 270.409 111.689 355.521V355.522C109.613 391.702 110.489 427.984 102.856 463.909V463.911L101.878 463.701L102.855 463.911C99.4578 479.699 94.914 495.223 89.2617 510.354L89.2627 510.354C76.6371 544.675 65.9098 565.347 63.6299 602.957C62.4901 621.759 69.0541 637.755 75.7725 653.371C82.4614 668.919 89.3448 684.159 88.3691 701.131L88.3682 701.137L88.3125 702.019C87.8845 709.24 86.087 716.324 83.0156 722.873C81.1587 726.865 77.85 732.245 73.7178 735.914C71.6478 737.752 69.3173 739.209 66.8086 739.804C64.2683 740.406 61.6019 740.108 58.9492 738.529C56.5699 737.113 55.3197 735.422 55.0732 733.513C54.8341 731.66 55.5783 729.858 56.5928 728.276C57.616 726.681 59.0082 725.165 60.2812 723.853C61.5966 722.497 62.7287 721.411 63.3984 720.554V720.553C72.3948 709.038 72.1486 696.51 68.5186 683.868C66.7006 677.537 64.0429 671.214 61.2939 665.011C58.555 658.83 55.7141 652.742 53.585 646.973C49.7086 636.464 47.3612 625.454 46.6172 614.278L46.4805 612.221C43.8986 569.239 59.5525 539.68 73.5146 501.261C78.4057 487.647 82.4373 473.746 85.585 459.626C92.9807 425.646 92.7573 388.034 94.1377 353.039C99.7568 210.544 186.557 59.9061 343.016 48.959Z" fill="#4E5968" stroke="#4E5968" stroke-width="2"/>
<path d="M435.78 68.9924C468.056 67.8146 499.897 82.3473 527.633 103.44C555.379 124.54 579.117 152.279 595.217 177.707C624.585 224.103 645.551 280.1 644.099 335.809C643.427 361.715 640.416 386.845 645.114 412.309L645.343 413.522L645.345 413.533C649.808 438.026 657.74 455.379 668.087 477.745L668.983 479.671C687.661 520.165 697.462 563.441 688.724 608.152C687.125 616.321 684.869 624.677 682.762 633.024C680.651 641.389 678.684 649.764 677.633 658.055C675.535 674.615 677.099 690.747 688.427 705.615C690.078 707.777 692.226 709.759 694.415 711.815C696.436 713.714 698.494 715.68 700.046 717.828L700.35 718.26L700.351 718.262C702.121 720.866 701.606 723.548 700.26 725.728C698.938 727.87 696.763 729.652 694.868 730.763L694.626 730.905L694.347 730.901C691.388 730.856 689.259 730.447 687.314 729.464C685.4 728.497 683.741 727.009 681.671 724.986L680.707 724.031C660.681 703.823 655.305 673.021 661.387 646.039C664.855 630.651 669.261 616.548 671.927 600.994C678.356 563.493 670.263 526.573 654.958 492.138C645.199 470.164 634.249 448.342 629.443 424.294L629.115 422.782C622.379 391.161 625.646 368.074 626.511 336.869C628.053 281.081 604.111 220.157 571.841 175.191V175.19C546.909 140.451 507.932 103.965 466.53 91.2346L466.497 91.2249L466.463 91.2122C461.52 89.3045 456.454 88.4095 451.297 87.7981C446.198 87.1935 440.865 86.856 435.691 86.0696C433.524 85.74 431.861 84.789 430.756 83.4133C429.659 82.0456 429.174 80.3333 429.215 78.5754C429.299 75.0761 431.46 71.2912 435.327 69.1204L435.538 69.0012L435.78 68.9924Z" fill="#4E5968" stroke="#4E5968" stroke-width="2"/>
<path d="M420.798 147.309C422.552 147.225 424.438 147.094 426.126 147.517C427.909 147.963 429.451 149.013 430.593 151.141C432.16 154.063 432.602 157.503 432.778 160.853C432.959 164.294 432.865 167.533 433.268 170.483V170.484C435.879 189.613 442.837 206.956 452.876 223.438L453.54 224.507C467.565 246.914 486.598 265.769 509.152 279.585C526.271 290.046 544.283 298.662 557.34 315.116C558.741 316.881 560.145 318.633 561.3 320.354C562.453 322.073 563.404 323.825 563.867 325.612C564.336 327.424 564.302 329.271 563.492 331.128C562.691 332.963 561.17 334.722 558.82 336.447L558.592 336.615L558.308 336.638C555.865 336.833 553.816 336.465 552.034 335.669C550.26 334.876 548.802 333.683 547.503 332.3C546.211 330.924 545.046 329.328 543.885 327.72C542.711 326.095 541.533 324.447 540.176 322.884C530.148 311.339 515.922 304.674 502.685 296.697V296.698C458.244 270.002 422.642 224.446 416.185 171.966C415.916 169.78 415.529 167.643 415.203 165.445C414.882 163.28 414.63 161.106 414.669 159.002C414.746 154.74 416.022 150.729 420.239 147.512L420.487 147.323L420.798 147.309Z" fill="#4E5968" stroke="#4E5968" stroke-width="2"/>
<path d="M271.381 659.116C275.105 659.031 277.317 659.565 279.224 660.932C280.144 661.591 280.956 662.419 281.813 663.366C282.698 664.345 283.587 665.4 284.793 666.698L285.688 667.649C323.813 707.641 394.259 715.419 439.505 683.279L439.509 683.277C442.328 681.292 445.013 679.138 447.56 676.816C448.223 676.202 449.142 675.214 450.231 674.036C451.309 672.871 452.532 671.545 453.764 670.309C454.991 669.078 456.258 667.905 457.428 667.057C458.013 666.633 458.601 666.269 459.17 666.022C459.728 665.779 460.351 665.613 460.972 665.687L461.529 665.759C467.208 666.555 470.379 668.882 471.055 672.282C471.719 675.626 469.808 679.433 466.821 682.704L466.813 682.713L466.082 682.031L466.812 682.713C439.353 712.081 400.002 724.089 360.585 720.714C330.386 718.389 301.789 706.183 279.221 685.984L279.217 685.981C277.458 684.388 275.198 682.478 273.084 680.461C270.958 678.434 268.884 676.211 267.428 673.894C265.975 671.581 265.068 669.062 265.472 666.489C265.88 663.888 267.585 661.468 270.847 659.285L271.089 659.123L271.381 659.116Z" fill="#4E5968" stroke="#4E5968" stroke-width="2"/>
<path d="M484.388 643.864C488.291 643.736 493.067 644.849 497.696 646.267C502.332 647.688 506.976 649.466 510.552 650.709L512.713 651.478C557.987 667.898 595.982 702.458 615.33 746.773V746.774C616.53 749.527 618.23 752.834 619.436 756.127C620.653 759.449 621.467 762.989 620.846 766.389V766.39C620.559 767.956 619.677 769.171 618.663 770.13C617.657 771.081 616.457 771.839 615.454 772.469L615.218 772.618L614.94 772.623C613.282 772.653 611.329 772.606 609.59 772.079C607.819 771.542 606.186 770.477 605.356 768.45C595.972 745.484 586.827 727.469 569.142 709.109L569.141 709.108C557.085 696.571 543.117 686.024 527.755 677.856V677.855C513.56 670.319 500.228 665.712 484.969 660.867C480.615 659.484 477.92 656.741 477.677 653.379C477.437 650.053 479.644 646.649 483.894 644.014L484.122 643.873L484.388 643.864Z" fill="#4E5968" stroke="#4E5968" stroke-width="2"/>
<path d="M355.439 138.1C358.262 138.569 360.378 139.343 361.884 140.455C363.422 141.589 364.271 143.036 364.608 144.706C364.938 146.335 364.772 148.136 364.382 150.008C363.991 151.885 363.355 153.926 362.681 156.047C354.6 181.489 342.425 210.547 325.935 236.332C309.45 262.107 288.606 284.685 263.159 297.055L262.924 297.169L262.663 297.154C262.327 297.134 261.605 297.101 260.901 297.036C260.548 297.003 260.181 296.961 259.854 296.905C259.63 296.866 259.37 296.813 259.133 296.732L258.905 296.64C254.548 294.575 252.405 292.12 252.244 289.325C252.089 286.627 253.834 284.091 255.984 281.954C258.177 279.774 261.019 277.786 263.52 276.178C264.774 275.372 265.957 274.652 266.938 274.049C267.937 273.436 268.693 272.965 269.144 272.631C277.437 266.379 285.08 259.309 291.957 251.527L291.961 251.523C312.206 228.874 327.751 200.079 338.685 171.741L339.324 170.058C340.798 166.118 342.155 162.086 343.5 158.032C345.034 153.405 346.553 148.743 348.2 144.19C348.865 142.352 349.699 141.169 350.859 140.268C351.962 139.412 353.328 138.848 354.874 138.17L355.146 138.051L355.439 138.1Z" fill="#4E5968" stroke="#4E5968" stroke-width="2"/>
<path d="M243.372 642.719C248.344 642.702 252.634 645.945 253.532 649.998C253.99 652.063 253.541 654.27 251.934 656.222C250.346 658.15 247.676 659.774 243.766 660.864C196.401 674.076 156.26 711.165 137.955 756.658C137.285 758.323 136.736 759.933 136.182 761.499C135.632 763.051 135.076 764.56 134.406 765.951C133.052 768.764 131.205 771.151 127.912 772.655L127.711 772.747L127.489 772.745C123.671 772.719 121.001 771.807 119.323 770.107C117.638 768.4 117.141 766.09 117.24 763.703C117.339 761.319 118.035 758.722 118.89 756.257C119.746 753.787 120.791 751.367 121.618 749.364C124.801 741.654 128.407 734.436 132.616 727.246C156.6 685.374 196.429 654.917 243.123 642.751L243.245 642.719H243.372Z" fill="#4E5968" stroke="#4E5968" stroke-width="2"/>
<path d="M623.036 548.848C627.194 549.082 629.735 550.306 631.401 552.601C632.977 554.771 633.673 557.807 634.52 561.266L635.277 564.284C635.921 566.814 636.579 569.38 637.139 571.958L637.462 573.505V573.506C642.069 596.632 640.774 620.548 633.7 643.039C630.664 652.834 626.564 663.12 624.418 673.539C622.349 683.584 622.154 693.542 626.512 702.901L626.948 703.804V703.805C627.838 705.591 629.031 707.255 630.199 708.922C631.34 710.551 632.485 712.219 633.116 713.894C633.766 715.619 633.903 717.436 632.944 719.29C632.017 721.082 630.133 722.766 627.096 724.45L626.854 724.584L626.576 724.575C622.375 724.43 619.498 723.159 617.229 721C615.019 718.896 613.438 715.99 611.719 712.76C604.604 699.389 604.221 686.591 606.499 674.007C607.636 667.728 609.437 661.496 611.392 655.277C613.353 649.038 615.457 642.845 617.241 636.551L617.244 636.543C620.459 625.563 622.227 614.211 622.5 602.775C622.688 592.916 621.65 583.069 619.416 573.471V573.472C618.842 571.044 618.063 568.744 617.354 566.496C616.654 564.277 616.019 562.096 615.811 560.026C615.6 557.935 615.815 555.893 616.867 553.983C617.915 552.079 619.732 550.417 622.516 548.96L622.761 548.833L623.036 548.848Z" fill="#4E5968" stroke="#4E5968" stroke-width="2"/>
<path d="M113.946 575.3C118.028 575.527 120.699 576.758 122.198 578.877C123.67 580.956 123.828 583.644 123.491 586.361C123.152 589.093 122.281 592.075 121.47 594.872C120.644 597.718 119.887 600.356 119.679 602.555L119.675 602.594L119.668 602.633C118.662 608.422 118.627 613.789 118.688 619.581L118.719 622.093V622.094C118.846 635.111 123.261 647.225 127.462 659.561C131.643 671.839 135.606 684.322 134.53 697.803C134.122 702.919 133.079 709.816 130.788 715.971C128.511 722.089 124.91 727.709 119.234 729.89L118.98 729.989L118.711 729.944C114.592 729.257 111.968 727.898 110.587 725.889C109.194 723.864 109.244 721.442 109.836 719.078C110.428 716.715 111.614 714.202 112.751 711.846C113.912 709.441 115.014 707.21 115.573 705.261C117.886 697.194 117.284 688.848 115.41 680.524C113.533 672.183 110.408 663.973 107.725 656.117L107.347 654.993C99.5207 631.39 98.8582 606.614 106.515 582.764C107.143 580.805 107.987 579.36 109.162 578.191C110.323 577.038 111.755 576.206 113.461 575.394L113.691 575.285L113.946 575.3Z" fill="#4E5968" stroke="#4E5968" stroke-width="2"/>
<path d="M383.98 147.342C386.222 147.124 389.145 147.442 391.458 148.579C392.624 149.152 393.686 149.958 394.401 151.062C395.128 152.184 395.454 153.549 395.238 155.131V155.132C390.452 190.095 382.879 227.262 393.324 261.521L393.441 261.887C394.052 263.709 395.022 265.399 396.047 267.07C397.115 268.81 398.285 270.589 398.994 272.352C399.72 274.158 400.019 276.074 399.255 278.099C398.505 280.087 396.791 282.017 393.862 284.017L393.675 284.145L393.452 284.18C389.203 284.843 385.03 283.313 382.674 279.495L382.453 279.118C374.205 264.497 371.176 247.544 370.673 230.323C370.17 213.103 372.192 195.537 374.101 179.674C375.195 170.575 376.626 159.888 379.813 151.205L379.825 151.175C379.99 150.767 380.282 150.38 380.567 150.056C380.865 149.718 381.217 149.38 381.569 149.068C382.272 148.443 383.031 147.869 383.479 147.536L383.703 147.37L383.98 147.342Z" fill="#4E5968" stroke="#4E5968" stroke-width="2"/>
<path d="M241.27 221.96C242.876 221.897 244.522 221.765 246.027 222.054C247.62 222.36 249.063 223.128 250.377 224.773C251.397 226.05 251.885 227.948 252.028 229.729C252.172 231.525 251.982 233.418 251.45 234.785C237.513 270.558 211.263 310.928 177.488 330.424L177.286 330.541L177.052 330.556C170.833 330.957 166.698 328.536 165.654 324.693C164.63 320.924 166.793 316.484 171.619 313.286C202.981 292.505 221.751 259.639 236.827 225.919V225.918C237.177 225.135 237.982 224.347 238.679 223.741C239.42 223.099 240.219 222.514 240.723 222.149L240.968 221.972L241.27 221.96Z" fill="#4E5968" stroke="#4E5968" stroke-width="2"/>
<path d="M327.228 461.901C329.79 462.064 331.566 462.866 333.21 463.695C334.85 464.522 336.297 465.334 338.388 465.764C349.609 468.066 361.612 468.732 373.139 468.708C379.704 468.695 387.493 467.726 394.155 466.735L394.169 466.733L394.623 466.672C396.855 466.343 399.607 465.493 402.459 464.636C405.428 463.744 408.525 462.837 410.971 462.691H410.972C412.26 462.616 413.419 463.139 414.36 463.923C415.299 464.706 416.072 465.784 416.635 466.952C417.735 469.234 418.184 472.197 417.113 474.364L417.112 474.365C416.322 475.96 415.864 476.923 415.186 477.675C414.503 478.432 413.613 478.959 412.161 479.854L412.035 479.932L411.892 479.969C388.966 486.006 365.029 487.146 341.635 483.308V483.307C338.239 482.757 332.383 482.086 327.684 480.204C325.325 479.259 323.141 477.968 321.688 476.135C320.201 474.259 319.542 471.89 320.125 468.979C320.887 465.174 324.063 463.458 326.684 462.022L326.938 461.882L327.228 461.901Z" fill="#4E5968" stroke="#4E5968" stroke-width="2"/>
</g>
<defs>
<clipPath id="clip0_689_393">
<rect width="746" height="746" fill="white"/>
</clipPath>
</defs>
</svg>
